<svg xmlns="http://www.w3.org/2000/svg" xmlns:xlink="http://www.w3.org/1999/xlink" viewBox="0 0 292.4 49.47"><defs><style>.cls-1,.cls-2,.cls-7{fill:#eceded;}.cls-1,.cls-10,.cls-12,.cls-13,.cls-14,.cls-16,.cls-17,.cls-18,.cls-2,.cls-21,.cls-23,.cls-24,.cls-25,.cls-26,.cls-27,.cls-28,.cls-29,.cls-30,.cls-31,.cls-33,.cls-34,.cls-35,.cls-36,.cls-37,.cls-38,.cls-39,.cls-40,.cls-41,.cls-44,.cls-45,.cls-46,.cls-47,.cls-48,.cls-49,.cls-50,.cls-51,.cls-52,.cls-53,.cls-54,.cls-55,.cls-56,.cls-57,.cls-7,.cls-8,.cls-9{stroke:#1b191c;}.cls-1,.cls-12,.cls-2{stroke-width:0.05px;}.cls-1,.cls-11,.cls-12,.cls-13,.cls-14,.cls-15,.cls-16,.cls-17,.cls-18,.cls-19,.cls-20,.cls-21,.cls-22,.cls-23,.cls-24,.cls-25,.cls-26,.cls-27,.cls-28,.cls-29,.cls-30,.cls-32,.cls-33,.cls-34,.cls-36,.cls-37,.cls-39,.cls-40,.cls-42,.cls-43,.cls-44,.cls-45,.cls-47,.cls-48,.cls-49,.cls-5,.cls-51,.cls-52,.cls-53,.cls-54,.cls-55,.cls-56,.cls-57,.cls-6,.cls-7,.cls-8{fill-rule:evenodd;}.cls-3,.cls-5{fill:#130c0e;}.cls-10,.cls-11,.cls-12,.cls-25,.cls-4,.cls-44,.cls-9{fill:#fff;}.cls-6{fill:#cd6d28;}.cls-14,.cls-16,.cls-21,.cls-23,.cls-24,.cls-27,.cls-28,.cls-31,.cls-34,.cls-35,.cls-37,.cls-38,.cls-40,.cls-41,.cls-44,.cls-45,.cls-48,.cls-50,.cls-53,.cls-7{stroke-linecap:round;stroke-linejoin:round;}.cls-7,.cls-8,.cls-9{stroke-width:0.06px;}.cls-23,.cls-27,.cls-30,.cls-31,.cls-34,.cls-35,.cls-37,.cls-38,.cls-40,.cls-41,.cls-45,.cls-8{fill:none;}.cls-10{stroke-width:0.06px;}.cls-13,.cls-15{fill:#fef383;}.cls-13,.cls-14,.cls-27,.cls-48,.cls-49,.cls-50,.cls-53{stroke-width:0.01px;}.cls-14,.cls-33,.cls-36,.cls-39,.cls-43{fill:#009046;}.cls-16,.cls-29,.cls-32,.cls-50,.cls-53{fill:#e12726;}.cls-16,.cls-21,.cls-23,.cls-24,.cls-25,.cls-26,.cls-28,.cls-29,.cls-30,.cls-31{stroke-width:0.01px;}.cls-17,.cls-18,.cls-46,.cls-47{stroke-width:0.01px;}.cls-17{fill:url(#GradientFill_2);}.cls-18{fill:url(#GradientFill_2-2);}.cls-19{fill:url(#GradientFill_2-3);}.cls-20{fill:url(#GradientFill_2-4);}.cls-21,.cls-22{fill:#058bcc;}.cls-24{fill:#2a347d;}.cls-26,.cls-42{fill:#f8ba17;}.cls-28{fill:#feeb00;}.cls-33,.cls-34{stroke-width:0.01px;}.cls-35{stroke-width:0px;}.cls-36,.cls-37{stroke-width:0.02px;}.cls-38{stroke-width:0.01px;}.cls-39,.cls-40{stroke-width:0.02px;}.cls-41{stroke-width:0.01px;}.cls-44,.cls-45{stroke-width:0.01px;}.cls-46,.cls-47,.cls-48,.cls-49,.cls-51,.cls-52,.cls-54,.cls-55,.cls-56,.cls-57{fill:#d8d9da;}.cls-51{stroke-width:0.01px;}.cls-52{stroke-width:0.01px;}.cls-54{stroke-width:0.01px;}.cls-55{stroke-width:0.01px;}.cls-56{stroke-width:0.01px;}.cls-57{stroke-width:0.01px;}.cls-58{fill:#231f20;}</style><linearGradient id="GradientFill_2" x1="4019.54" y1="-3050.09" x2="4023.76" y2="-3051.97" gradientTransform="translate(-3030.44 -3990.15) rotate(90)" gradientUnits="userSpaceOnUse"><stop offset="0" stop-color="#d8d9da"/><stop offset="0.05" stop-color="#d8d9da"/><stop offset="1" stop-color="#868889"/></linearGradient><linearGradient id="GradientFill_2-2" x1="4019.61" y1="-3054.03" x2="4024.49" y2="-3056" xlink:href="#GradientFill_2"/><linearGradient id="GradientFill_2-3" x1="4022.6" y1="-3056.05" x2="4021.45" y2="-3055.74" xlink:href="#GradientFill_2"/><linearGradient id="GradientFill_2-4" x1="4022.66" y1="-3051.15" x2="4021.28" y2="-3050.51" xlink:href="#GradientFill_2"/></defs><g id="Capa_2" data-name="Capa 2"><g id="Layer_1" data-name="Layer 1"><path class="cls-1" d="M14.34,38.92a1.72,1.72,0,0,0,.7.33.22.22,0,0,1,.11.37L5.91,49.37a.23.23,0,0,1-.32,0L5,48.93a.22.22,0,0,1,0-.33l1-1a.21.21,0,0,0,0-.34l-3-2a.24.24,0,0,0-.29,0L1.43,46.52a.25.25,0,0,1-.33,0l-.51-.42a.22.22,0,0,1,0-.32l9.92-10.34a.24.24,0,0,1,.37,0,6,6,0,0,0,.38.5.24.24,0,0,1,0,.28h0l-.3.33a.22.22,0,0,0,.05.33L14.23,39ZM7,46.58l2.59-2.9a.21.21,0,0,0-.05-.33L6.56,41.54a.24.24,0,0,0-.3,0L3.71,44.1a.23.23,0,0,0,0,.35L7,46.58m3.65-3.95,2.66-2.74a.22.22,0,0,0,0-.35l-3.16-1.81a.24.24,0,0,0-.29,0L7.12,40.39a.22.22,0,0,0,0,.35l3.16,1.93A.23.23,0,0,0,10.62,42.63Z"/><polyline class="cls-1" points="2.85 45.21 2.77 44.62 3.13 44.2 3.65 44.28"/><polyline class="cls-1" points="6.42 41.52 6.34 41.08 6.7 40.65 7.16 40.74"/><polyline class="cls-1" points="9.99 37.7 9.91 37.27 10.27 36.85 10.92 36.85"/><line class="cls-2" x1="2.92" y1="44.45" x2="6.63" y2="46.91"/><line class="cls-2" x1="6" y1="47.57" x2="6.97" y2="46.58"/><line class="cls-2" x1="5.25" y1="49.14" x2="14.74" y2="39.04"/><line class="cls-2" x1="6.5" y1="40.88" x2="10.08" y2="43.15"/><line class="cls-2" x1="9.56" y1="43.68" x2="10.62" y2="42.63"/><line class="cls-2" x1="10.11" y1="37.04" x2="13.92" y2="39.3"/><line class="cls-2" x1="0.69" y1="46.2" x2="11.04" y2="35.39"/><line class="cls-2" x1="13.13" y1="40.04" x2="14.23" y2="39.02"/><path class="cls-1" d="M34.57,10.58a.22.22,0,0,1-.07-.36c1.07-1.09,5.64-5.76,6-6.1,0,0,.93-.81,1.16-.71s.12.5.06.7v0a3.7,3.7,0,0,1-.4.85c-.11.19-.35.38-.23.52a2.48,2.48,0,0,1,.23.4.2.2,0,0,1,0,.23c-.11.15-.32.41-.48.6h0c-.23.24-.46.61-.63.47s-.23-.14-.12-.33.33-.54.45-.69l0,0c.13-.11.38-.37.27-.41s-.27.08-.44.18l0,0c-.18.15-.93.91-1.29,1.27a.22.22,0,0,0,0,.34l3,1.94a.24.24,0,0,0,.3,0c.58-.53,2.77-2.56,3-2.77s1.21-.62,1,0a5.76,5.76,0,0,1-.69,1.23.21.21,0,0,0,.09.31c.25.11.53.36.2.93-.58.95-.69,1-.87.91s-.28-.15-.17-.34.75-.85.58-1-.41-.23-.64,0-6.79,7-8.26,8.47a.24.24,0,0,1-.4-.11l.14-1.17a.21.21,0,0,1,.06-.21l1.37-1.33a.22.22,0,0,0,0-.34l-1.38-1a.23.23,0,0,1-.09-.19l0-.39a.24.24,0,0,1,.37-.18l1.75,1.19a.24.24,0,0,0,.31,0l2.66-2.79a.22.22,0,0,0-.05-.35L38.13,8.36a.24.24,0,0,0-.3,0l-2.28,2.44a.25.25,0,0,1-.28.06Z"/><line class="cls-2" x1="37.79" y1="14.31" x2="38.54" y2="13.54"/><polyline class="cls-1" points="35.94 16.76 44.7 7.74 44.76 7.21 43.37 8.45 44.35 9.16"/><rect class="cls-3" x="22.12" y="8.17" width="1.67" height="3.5"/><path class="cls-3" d="M9.44,30.18V11.7H21.78L23,11l1.19.74H36.55V30.27C36.55,41.5,23,41.43,23,41.43S9.44,41.31,9.44,30.18Z"/><path class="cls-4" d="M10.39,29.93V12.74H21.78L23,12l1.19.74H35.6V30C35.6,40.46,23,40.39,23,40.39S10.39,40.28,10.39,29.93Z"/><path class="cls-5" d="M8.21,9.29a6.16,6.16,0,0,0-.69-.76L6.08,9.62s.06.05.06.09,1.15,1.43,1.32,1.62,2.13,1.86,2.13,1.86l1.15-1.48-1.2-1.09C9.36,10.48,8.33,9.43,8.21,9.29Z"/><path class="cls-5" d="M32.53,38.21a.33.33,0,0,0,0,.53,27.14,27.14,0,0,1,3.81,4.19c1.83,2.35,3.41,4.53,4,5.51a.37.37,0,0,0,.62,0l1.44-2.23a.35.35,0,0,0,0-.39c-.56-.73-2.61-3.36-3.58-4.41S35.18,37.84,34.33,37a.36.36,0,0,0-.51,0A13.64,13.64,0,0,1,32.53,38.21Z"/><path class="cls-6" d="M33.35,38.5a.27.27,0,0,0,0,.42,35.16,35.16,0,0,1,3.43,3.76,52.75,52.75,0,0,1,3.53,4.84.32.32,0,0,0,.54,0l.31-.6a.3.3,0,0,0,0-.35c-.5-.64-2.32-3-3.18-3.92s-3.11-3.58-4-4.3a.3.3,0,0,0-.39,0Z"/><path class="cls-6" d="M36.3,39.83a.09.09,0,0,0,0,.16,14.31,14.31,0,0,1,1.42,1.39,20.22,20.22,0,0,1,1.5,1.81.12.12,0,0,0,.21,0l.1-.24a.12.12,0,0,0,0-.14c-.21-.24-1-1.11-1.34-1.46s-1.3-1.32-1.65-1.59a.12.12,0,0,0-.15,0Z"/><path class="cls-6" d="M7.94,10H8a.23.23,0,1,0,.33-.31C8,9.37,7.8,9.1,7.5,9a1.08,1.08,0,0,0-.86.68c-.07.27.2.52.55.9.12.13.27.31.45.48s.6,0,.39-.27l-.36-.39c-.31-.34-.41-.45-.22-.65C7.45,9.79,7.66,9.6,7.94,10Z"/><path class="cls-6" d="M8.85,11.81a2.61,2.61,0,0,0,.59.8.18.18,0,0,0,.29-.07l.22-.68h0a.51.51,0,0,0-.12-.5.61.61,0,0,0-.89,0A.46.46,0,0,0,8.85,11.81Z"/><path class="cls-7" d="M7.52,8.53l-.08-.42a.36.36,0,0,1,.13-.33l2.54-1.95a.25.25,0,0,0-.21-.44h0c-.57.05-1,.14-1.53.23h0l-1.65.52a3.07,3.07,0,0,1-.93,0,1.66,1.66,0,0,0-.92.33,2.25,2.25,0,0,1-.61.41s0,0,0,0a8.46,8.46,0,0,1-.79.69,9,9,0,0,1-2.65.57c-.28,0-.67-.09-.69.44a.17.17,0,0,0,0,.07,13.43,13.43,0,0,0,2.12,2.77,2.81,2.81,0,0,0,1.1.57c.11.05.46-.52.69-.9A12.27,12.27,0,0,1,5.6,9.51a.36.36,0,0,1,.32-.09h0A.18.18,0,0,1,6,9.48H6a.15.15,0,0,0,.21,0l1.3-1Z"/><path class="cls-8" d="M1.7,9.24a4.74,4.74,0,0,0,.52.86c.35.33,1.56,1.33,1.56,1.33"/><polyline class="cls-1" points="34.85 10.45 40.44 4.69 40.73 3.93"/><polyline class="cls-1" points="38.01 8.33 38.01 7.88 38.54 7.43 38.94 7.43"/><line class="cls-2" x1="38.19" y1="7.74" x2="41.88" y2="9.97"/><line class="cls-2" x1="42.22" y1="9.59" x2="41.4" y2="10.45"/><line class="cls-2" x1="36.55" y1="12.66" x2="38.19" y2="13.9"/><line class="cls-2" x1="38.94" y1="5.69" x2="39.88" y2="6.36"/><path class="cls-5" d="M33.08,11.36S31.41,10.22,31,10c0,0-.17-.07-.13-.12s.25.05.42.15.29.19.44.27c.56.32,1.12.63,1.69.92l.26.13.06,0a.45.45,0,0,0,.43,0,.07.07,0,0,0,0-.13c-.87-.35-3.63-2-4.42-2.55-.06,0,0-.13,0-.13h.66a.68.68,0,0,1,.4.12c.76.48,3.62,2.29,4.12,2.46h0a2.51,2.51,0,0,0,1.19-.11.07.07,0,0,0,0-.14,19.28,19.28,0,0,1-5.32-2.75H23.59a.07.07,0,0,0-.07.07,4.22,4.22,0,0,0,0,.87h0a1.46,1.46,0,0,0,.73,1c.65.34,1.34.54,2.06.83a13.44,13.44,0,0,0,1.88.45,16.31,16.31,0,0,0,2.88.25h2S33.36,11.55,33.08,11.36Z"/><rect class="cls-9" x="15.19" y="6.98" width="15.75" height="0.67"/><rect class="cls-10" x="15.67" y="7.64" width="14.7" height="0.52"/><path class="cls-5" d="M15.15,7s.64-5.66,8.06-5.66C29.84,1.32,30.76,7,30.76,7Z"/><path class="cls-11" d="M18.5,3.3a.22.22,0,0,1-.13-.22c0-.25.34-.5.56-.56s.48,0,.49.22S18.81,3.44,18.5,3.3Z"/><path class="cls-11" d="M17.72,3.52a.12.12,0,0,1,.08.09.57.57,0,0,1-.14.37.6.6,0,0,1-.32.24A.19.19,0,0,1,17.1,4c0-.2.27-.44.45-.52A.25.25,0,0,1,17.72,3.52Z"/><path class="cls-12" d="M30.82,7.67h1a.29.29,0,0,0,.3-.31C31.68-.19,23.08-.06,21.21.06a.29.29,0,0,0-.27.35l.23.84a.29.29,0,0,0,.29.22c1.41,0,8.83.24,9.06,5.92A.31.31,0,0,0,30.82,7.67Z"/><path class="cls-4" d="M25.52,2.32a3.31,3.31,0,0,1,1,.33,5.29,5.29,0,0,1,2.18,1.5.13.13,0,0,1-.18.18,6.12,6.12,0,0,0-2.05-.86l-1.14-.21A.48.48,0,0,1,25.52,2.32Z"/><path class="cls-5" d="M14.31,11.24c5,0,7.18-.89,7.85-1.18a.25.25,0,0,0,.16-.23V8.3a.12.12,0,0,0-.13-.12H15.64c-1.56,0-4,2-4.75,2.63A.13.13,0,0,0,11,11C11.76,11.09,13.79,11.24,14.31,11.24Z"/><path class="cls-4" d="M14.8,8.72a8.88,8.88,0,0,0-2.56,1.51.15.15,0,0,0,.09.27h.18a.53.53,0,0,0,.32-.1A12.45,12.45,0,0,1,15,8.93.13.13,0,0,0,15,8.69.33.33,0,0,0,14.8,8.72Z"/><path class="cls-4" d="M15.82,8.76a10.47,10.47,0,0,0-2.45,1.49.14.14,0,0,0,.08.25h0c.13,0,.22-.08.32-.16A16.81,16.81,0,0,1,16,8.9c.16-.09.11-.24-.07-.19Z"/><path class="cls-13" d="M23.3,38.23V38.1c0-.42.73-.47.73-.47a1.65,1.65,0,0,0,.84-.18c.5-.37.22-.7.22-.7-.05-.23-.39-.18-.39-.18a1,1,0,0,1-.62-.09c0-.1-.22,0-.22,0a.28.28,0,0,0-.17.32c.06.14.28.18.28.18-.45.28-.45-.23-.45-.23a.8.8,0,0,1,.34-.65c-.34,0-.78-.51-.78-.51h0s-.46.51-.79.51c0,0,.45.28.33.65,0,0,.06.51-.39.23,0,0,.23,0,.23-.18a.23.23,0,0,0-.17-.32s-.17-.1-.23,0a.9.9,0,0,1-.61.09s-.28,0-.34.18c0,0-.33.33.17.7a2,2,0,0,0,.84.18s.73,0,.79.47v.13Z"/><path class="cls-14" d="M22.91,38.23l-.06.1a.67.67,0,0,0-.51.32s-.22.51-.39.46c0,0,.51.23.73-.09a1.1,1.1,0,0,0,.23.46,1,1,0,0,1,.05.28h0a1.38,1.38,0,0,0,.34-.28.75.75,0,0,0,.17-.46c.22.32.73.09.73.09-.17,0-.4-.46-.4-.46-.05-.28-.44-.32-.44-.32l-.06,0Z"/><path class="cls-15" d="M15.34,20a2.71,2.71,0,0,0,1.28-.79l.68.38.05.46.29.23,1.34.42,1.12,0,1.57-.27L23.41,20l.62.28.78.05.9.09.73.23,1.29-.14.61-.23.17-.51.68-.51a2.15,2.15,0,0,0,1.9.42l-.72.55-.18.56.06.74.23.69.45.51L32,23.7l.34.55-.34,1-.5,2.5-.23.09-.5.24-.39.74-.06.88.33,1,.23,1.12.11.36L28.29,34.9l-1.18.42L26,35.41l-2.69.28-2.08.09-2.41-.42-1.46-.65L15,32.63l-.11-.69.39-1.35.22-1.06-.16-1.06-.9-.7-.06-3.52-.73-.41,1-.79.73-.83.23-.7-.12-1.06Z"/><path class="cls-16" d="M23,33c.9-.79,3.42-.55,3.42-.55.73,0,.73-.6.73-.6V22.73A5.32,5.32,0,0,1,23,22.31h0a5.52,5.52,0,0,1-4.21.42v9.12s0,.6.79.6c0,0,2.46-.24,3.42.55Z"/><path class="cls-17" d="M23.08,32.17a8.18,8.18,0,0,0-.68-.56s-.34-.41-.56-.46a3.86,3.86,0,0,0-.5-.51s-.62-.32-.62-.41-.34-.51-.67-.37c0,0-.51.41-.51.55l-.9.74.06,1,.73.46h1.29l1.74.19.56-.47Z"/><path class="cls-18" d="M27.39,31.43a2.85,2.85,0,0,0-.89-.84,2.17,2.17,0,0,1-.4-.41s-.22-.6-.84-.14c0,0-.56.6-.62.69a1.64,1.64,0,0,1-.44.38.56.56,0,0,0-.28.18,1.07,1.07,0,0,1-.28.23.86.86,0,0,0-.45.28,1.57,1.57,0,0,1-.57.41s-.67.33-.72.47l.78.51h.62l1.06-.37,2.47-.09.67-.52Z"/><path class="cls-19" d="M25,32.59s.17-.88.51-.84c0,0,.72.1.72.46v.38Z"/><path class="cls-20" d="M21.28,32.54s.06-.83-.67-.79c0,0-.9.05-.56.79Z"/><polygon class="cls-21" points="22.91 34.71 22.91 34.71 22.91 34.71 22.91 34.71"/><path class="cls-22" d="M28.91,32.31V27.68H27.17v4.17s0,.6-.73.6c0,0-2.52-.24-3.42.55h0c-1-.79-3.42-.55-3.42-.55-.79,0-.79-.6-.79-.6V27.68h-1.9v4.63s-.23,1.57,2.58,1.67c0,0,2.91-.14,3.42.73.56-.87,3.42-.73,3.42-.73,2.8-.1,2.58-1.67,2.58-1.67Zm0-4.63V21a9.07,9.07,0,0,1-6,0h0a9.08,9.08,0,0,1-6,0v6.67h1.9V22.73A5.52,5.52,0,0,0,23,22.31h0a5.32,5.32,0,0,0,4.15.42v4.95Z"/><path class="cls-23" d="M28.91,32.31V21a9.07,9.07,0,0,1-6,0h0a9.08,9.08,0,0,1-6,0v11.3s-.23,1.57,2.58,1.67c0,0,2.91-.14,3.42.73.56-.87,3.42-.73,3.42-.73,2.8-.1,2.58-1.67,2.58-1.67m-1.74-.46s0,.6-.73.6c0,0-2.52-.24-3.42.55h0c-1-.79-3.42-.55-3.42-.55-.79,0-.79-.6-.79-.6V22.73A5.52,5.52,0,0,0,23,22.31h0a5.32,5.32,0,0,0,4.15.42Z"/><path class="cls-24" d="M32.05,30.13l-.11.05s.22.37,0,.6a2.69,2.69,0,0,1-.45.46s-.22.14,0,.37a6.79,6.79,0,0,1,.62.51s.17-.14.22-.14a2.47,2.47,0,0,0-.56-.46s-.33,0,.12-.32C31.94,31.2,32.55,30.87,32.05,30.13Z"/><path class="cls-24" d="M31.88,30.09A7.24,7.24,0,0,0,32,31.48a2.46,2.46,0,0,1,0,.46,11.8,11.8,0,0,0,.11,1.8h-.28A7.9,7.9,0,0,1,31.71,32a2.65,2.65,0,0,0,.06-.41,8.77,8.77,0,0,1-.12-1.44Z"/><path class="cls-24" d="M31.82,27.73A.89.89,0,0,1,31.88,29l-.28,0s-.39-.18-.11-1.25Z"/><path class="cls-25" d="M31.71,28a1.12,1.12,0,0,1,0,.78A1.15,1.15,0,0,1,31.71,28Z"/><path class="cls-24" d="M14.05,30.18a6.9,6.9,0,0,1-.12,1.39V32a7.21,7.21,0,0,1-.11,1.81h.28a8.85,8.85,0,0,0,.06-1.76v-.47a8.63,8.63,0,0,0,.05-1.38Z"/><path class="cls-24" d="M13.88,30.09s-.68.46,0,1.2c0,0,.67.51.61,1h.28a1.52,1.52,0,0,0-.5-1s-.78-.74-.34-1Z"/><path class="cls-24" d="M14.1,27.82A.88.88,0,0,0,14,29l.28.1s.39-.24.11-1.26Z"/><polygon class="cls-24" points="14.89 19.72 14.33 19.76 14.1 19.99 14.1 20.36 14.27 20.6 14.55 20.69 14.72 20.69 15 20.55 15.28 20.27 15.34 20.04 15.11 19.81 14.89 19.72"/><path class="cls-24" d="M30.87,20.55s.11.14.17.14h.39l.17-.23,0-.23.06-.24-.22-.18-.12-.09H31l-.4.18-.27.23v.19l.27.09.23.1Z"/><path class="cls-24" d="M31.15,24.53,31,24.21l.22-.33.62,0,.33.27v.33l-.05,0h.22s-.17,1.4-.17,1.81a13.49,13.49,0,0,0,.12,1.44l-.68.27-.5-.23s.06-1.25-.06-3.24Z"/><path class="cls-26" d="M17.47,34.62l-.17.23a3.88,3.88,0,0,0,2.07.65c.9-.14-.16-.27-.16-.27S17.75,35.08,17.47,34.62Z"/><path class="cls-26" d="M28.4,34.62l.17.23a3.88,3.88,0,0,1-2.07.65c-.9-.14.16-.27.16-.27S28.12,35.08,28.4,34.62Z"/><path class="cls-14" d="M20.78,35.83s-.85,0-.45.37c0,0,.33,0,.28-.19,0,0,.28,1.07-.9.56,0,0-.34.23-.56,0,0,0-.11,0-.11,0s.17,0,.17-.09a.49.49,0,0,1,.11-.32s-.51.14-.62-.33c0,0,0,0-.06-.09a.39.39,0,0,0,.34,0,1.14,1.14,0,0,1,.51-.19.77.77,0,0,1-.45-.32s-.12-.14-.23-.09a2.65,2.65,0,0,0,.28-.1s.56-.09.79.24c0,0-.11-.09-.06-.19a.59.59,0,0,0-.11-.14.61.61,0,0,0,.22,0s.4,0,.51.23c0,0,.17.23.34.23,0,0-.4-.23-.17-.55,0,0,.11-.19-.06-.28a.82.82,0,0,1,.67.23s.17.37.23.46,0-.37.28-.46c0,0,.11,0,.11,0a.32.32,0,0,0,.11.23s.45.28.17.51c0,0,.67-.27,1,.14a1.27,1.27,0,0,1-1.18.33A5.13,5.13,0,0,1,20.78,35.83Z"/><path class="cls-27" d="M26.38,36a1.47,1.47,0,0,0-.67-.18"/><path class="cls-24" d="M15.73,32.17l-.5-.14L15,32.4l-.06.42a2.88,2.88,0,0,0,1.52,2l.39.14.5-.28v-.33s-1.29-1.11-1.4-1.89Z"/><path class="cls-25" d="M14.16,28.05a1,1,0,0,0,0,.74S14.38,28.33,14.16,28.05Z"/><path class="cls-16" d="M14.1,29s-.5-.19-.22.36c0,0-.62-.22-.45.19,0,0-.23.65.39.37,0,0-.33.56.28.37,0,0,.62.19.39-.32,0,0,.56.28.34-.28,0,0,.4-.55-.39-.23C14.44,29.44,14.89,28.84,14.1,29Z"/><path class="cls-23" d="M14.38,29.67c0,.09-.11.14-.22.14s-.23,0-.23-.14.12-.18.23-.18A.22.22,0,0,1,14.38,29.67Z"/><path class="cls-23" d="M14.16,29.49s0-.28.05-.33"/><path class="cls-23" d="M14.16,30.18s0-.28.05-.32"/><path class="cls-23" d="M14.38,29.67h.39"/><path class="cls-23" d="M13.54,29.62a1.58,1.58,0,0,1,.45.05"/><path class="cls-26" d="M16.51,19.44l.28-.28s.85.37.85,1a5,5,0,0,0,1.45.46l-.22.28a6.9,6.9,0,0,1-1.57-.65A.76.76,0,0,0,16.51,19.44Z"/><path class="cls-26" d="M29.36,19.44l-.28-.28s-.84.37-.84,1a5.28,5.28,0,0,1-1.46.46l.16.28a7.35,7.35,0,0,0,1.63-.65A.75.75,0,0,1,29.36,19.44Z"/><path class="cls-28" d="M19.54,19.81s.28-.28-.56-.23c0,0-.62.09-.39.6a1.16,1.16,0,0,0,.5.6l.62,0-.11-.19-.45-.32.11-.33Z"/><path class="cls-28" d="M26.27,19.81s-.22-.28.56-.23c0,0,.62.09.45.6a1.16,1.16,0,0,1-.5.6l-.68,0,.17-.19.45-.32-.17-.33Z"/><path class="cls-26" d="M20.22,20.6s-1.13-.19-.85-.56c0,0,.28.05.34-.14,0,0,.06-.23-.34-.18,0,0-.56.14-.28.6a.76.76,0,0,0,.56.42Z"/><path class="cls-26" d="M25.66,20.6s1.12-.19.84-.56c0,0-.29.05-.34-.14,0,0-.06-.23.34-.18,0,0,.56.14.22.6a.6.6,0,0,1-.51.42Z"/><path class="cls-28" d="M21,20.51s.06-1,1-1l.22.23-.67.61Z"/><path class="cls-29" d="M23.08,14.58a1.19,1.19,0,0,0-1-1.3,1.34,1.34,0,0,0-.78-.14s-.68.14-.68.47c0,0-.17.55.56.27a.68.68,0,0,0,.62,0s0,.14.17.14a.73.73,0,0,0,.33.37Z"/><path class="cls-30" d="M21.17,13.56s1.4-.18,1.74,1"/><path class="cls-24" d="M23.75,15.18s.39.23.56.14a1,1,0,0,0,.84-.05s.17.33.45.28c0,0-.11.74.56.74,0,0-.23.46.17.6,0,0-.12.24.11.24,0,0,.78.46.84-.42a.53.53,0,0,0,.17-.79.62.62,0,0,0-.45-.65s0-.41-.62-.41c0,0-.05-.51-1.34-.1Z"/><path class="cls-23" d="M24.64,14.9A2.11,2.11,0,0,1,27,16.52"/><path class="cls-29" d="M24.48,15a5.06,5.06,0,0,0,1.57-.78.3.3,0,0,0,.28.09s.05.32.45,0c0,0,.39-.18.28-.41a.23.23,0,0,0,0-.42s.28-.42-.45-.28c0,0-.28-.32-.79.14,0,0-.84.6-1.46,1.16l-.5.46.11.14Z"/><path class="cls-23" d="M24.53,15a3.46,3.46,0,0,0,.67-.65,4,4,0,0,1,.68-.47"/><path class="cls-23" d="M25.88,13.42s0,.23.11.23-.11.33.11.33c0,0-.17.18-.05.28"/><path class="cls-23" d="M26.66,13.33a2.33,2.33,0,0,1-.05,1.06"/><path class="cls-16" d="M24.14,14.81s-.06.6-.34.74c0,0-.33-.09-.39-.05s-.95-1-.22-1.62c0,0,.22-.18.33-.18s.4-.37.73-.14c0,0,.68-.14.56.46,0,0,.06.33-.11.37,0,0-.11.28-.28.24,0,0-.22.13-.28,0S24.14,14.72,24.14,14.81Z"/><path class="cls-23" d="M24.14,14.67s-.22,0-.22-.14-.51,0-.34-.27c0,0-.28-.24-.11-.42"/><path class="cls-23" d="M24.25,13.56s.11.09.06.19.22.32.05.55"/><path class="cls-23" d="M23.69,14.53a.5.5,0,0,0-.11.42s.11.42.06.51"/><path class="cls-24" d="M23.41,15.37s-.56.13-.67-.14c0,0-.51,0-.56-.23,0,0-.28.37-.56.18a.5.5,0,0,1-.84.32s-.17.14-.29.05-.22.09-.33-.28c0,0-.67-1.15,1.57-1.25A2,2,0,0,1,23.41,15.37Z"/><path class="cls-23" d="M21.39,14.12a1,1,0,0,0-.78,1.34"/><path class="cls-28" d="M23.75,19.58c.11.09.39.37.39.37l.73-.37s.22-.42-.28-.42Z"/><path class="cls-28" d="M23.86,19.63s.78-.24.9-.42c0,0,0-.14-.17-.19l-.9.37Z"/><path class="cls-28" d="M23.75,19.44s.84-.23.95-.42c0,0,.17-.09-.17-.23l-.89.37Z"/><path class="cls-28" d="M23.64,19.21a3,3,0,0,0,1-.42s.17,0-.11-.37l-1,.51Z"/><path class="cls-28" d="M25.71,17.82a2.21,2.21,0,0,0,.11-.65,2.2,2.2,0,0,0-1.68-2l-.22.42.89,2.17Z"/><line class="cls-31" x1="24.53" y1="15.32" x2="24.25" y2="15.64"/><line class="cls-31" x1="24.87" y1="15.5" x2="24.48" y2="15.78"/><line class="cls-31" x1="25.15" y1="15.74" x2="24.59" y2="16.01"/><line class="cls-31" x1="25.37" y1="16.01" x2="24.76" y2="16.2"/><line class="cls-31" x1="25.54" y1="16.29" x2="24.98" y2="16.38"/><line class="cls-31" x1="25.71" y1="16.57" x2="25.04" y2="16.66"/><line class="cls-31" x1="25.77" y1="16.89" x2="25.15" y2="16.94"/><line class="cls-31" x1="25.82" y1="17.26" x2="25.26" y2="17.26"/><line class="cls-31" x1="25.77" y1="17.54" x2="25.09" y2="17.49"/><path class="cls-28" d="M25.43,17.17A2.08,2.08,0,0,1,23.19,19,2.06,2.06,0,0,1,21,17.17a2.06,2.06,0,0,1,2.19-1.8A2.08,2.08,0,0,1,25.43,17.17Z"/><path class="cls-32" d="M22,18.7a1.86,1.86,0,0,1-1-1.53c-.06-.69.56-1.3,1.06-1.67l1.24,1.63Z"/><polygon class="cls-28" points="22.79 17.03 22.91 16.94 21.17 16.2 21.11 16.38 22.79 17.03"/><path class="cls-28" d="M21.22,16.2s0,.18.06.23Z"/><path class="cls-28" d="M21.39,16.29s-.05.14,0,.19Z"/><path class="cls-28" d="M21.5,16.34s0,.18.06.23Z"/><path class="cls-28" d="M21.67,16.43s0,.14.06.19Z"/><path class="cls-28" d="M21.84,16.48s0,.18.06.23Z"/><path class="cls-28" d="M22,16.57s0,.14,0,.18Z"/><path class="cls-28" d="M22.18,16.62a.32.32,0,0,0,.05.18Z"/><path class="cls-28" d="M22.29,16.71a.23.23,0,0,0,.05.14Z"/><path class="cls-28" d="M22.46,16.75s-.06.14,0,.19Z"/><path class="cls-28" d="M22.57,16.8a.35.35,0,0,0,.05.19Z"/><path class="cls-28" d="M22.68,16.85a.17.17,0,0,0,0,.18Z"/><polygon class="cls-28" points="22.74 17.22 22.79 17.08 20.94 17.13 20.89 17.31 22.74 17.22"/><path class="cls-28" d="M20.94,17.17s0,.09.12.09Z"/><path class="cls-28" d="M21.06,17.13s.11.13.16.13Z"/><path class="cls-28" d="M21.22,17.13s.12.13.17.13Z"/><path class="cls-28" d="M21.39,17.13s.11.13.17.13Z"/><path class="cls-28" d="M21.62,17.13a.44.44,0,0,0,.11.13Z"/><path class="cls-28" d="M21.79,17.08a1.72,1.72,0,0,0,.16.18Z"/><path class="cls-28" d="M22,17.08s.06.14.17.14Z"/><path class="cls-28" d="M22.12,17.08s.06.14.17.14Z"/><path class="cls-28" d="M22.29,17.08s.05.14.11.14Z"/><path class="cls-28" d="M22.4,17.08a.44.44,0,0,0,.17.14Z"/><path class="cls-28" d="M22.51,17.08a1.15,1.15,0,0,0,.11.14Z"/><polygon class="cls-28" points="22.96 17.36 22.91 17.22 21.17 18 21.34 18.14 22.96 17.36"/><path class="cls-28" d="M21.22,18s.17.1.23.05Z"/><path class="cls-28" d="M21.39,17.91a.91.91,0,0,0,.23.09Z"/><path class="cls-28" d="M21.5,17.86a.4.4,0,0,0,.29.05Z"/><path class="cls-28" d="M21.67,17.77a.91.91,0,0,0,.23.09Z"/><path class="cls-28" d="M21.84,17.73l.22,0Z"/><path class="cls-28" d="M22,17.63s.17.1.22.05Z"/><path class="cls-28" d="M22.18,17.54a.42.42,0,0,0,.22.09Z"/><path class="cls-28" d="M22.29,17.49s.17.1.22.05Z"/><path class="cls-28" d="M22.46,17.45a.71.71,0,0,0,.16,0Z"/><path class="cls-28" d="M22.57,17.36s.11.09.17.09Z"/><path class="cls-28" d="M22.68,17.31s.11.09.17.09Z"/><path class="cls-28" d="M22.91,17.68a1,1,0,0,1-.45-.6c0-.14.16-.51.33-.56v-.14a.85.85,0,0,0-.5.7.72.72,0,0,0,.56.69Z"/><path class="cls-28" d="M22.62,18.1h-.05a1.26,1.26,0,0,1-.67-1,1,1,0,0,1,.67-1l.11.14a.87.87,0,0,0-.62.83,1,1,0,0,0,.68.88Z"/><path class="cls-28" d="M22.4,18.37c.06.05,0,0-.06,0a1.45,1.45,0,0,1-.89-1.29,1.5,1.5,0,0,1,.84-1.3l.11.14a1.33,1.33,0,0,0-.78,1.16,1.3,1.3,0,0,0,.84,1.16s.05,0,0,0Z"/><path class="cls-28" d="M22.12,18.7c.06,0,0,0-.06-.05A1.86,1.86,0,0,1,21,17.08a1.89,1.89,0,0,1,1.06-1.58l.12.14a1.62,1.62,0,0,0-1,1.44,1.84,1.84,0,0,0,1,1.48c.05,0,.11,0,0,0Z"/><path class="cls-23" d="M22.62,16.66a.46.46,0,0,0-.22.05"/><path class="cls-23" d="M22.34,16.43a.68.68,0,0,0-.28.05"/><path class="cls-23" d="M22,16.2s-.22-.05-.28,0"/><path class="cls-23" d="M21.73,15.92s-.23-.05-.28,0"/><path class="cls-23" d="M21.62,16.06s-.23,0-.28.05"/><path class="cls-23" d="M21.45,16.2a.49.49,0,0,0-.23.05"/><path class="cls-23" d="M21.39,16.34a.53.53,0,0,0-.22,0"/><path class="cls-23" d="M21.34,16.48s-.17,0-.23.09"/><path class="cls-23" d="M21.22,16.62a.19.19,0,0,0-.16.09"/><path class="cls-23" d="M21.22,16.8a.21.21,0,0,0-.22.05"/><path class="cls-23" d="M21.17,17s-.11,0-.17.09"/><path class="cls-23" d="M21.17,17.13a.22.22,0,0,0-.17.09"/><path class="cls-23" d="M21.22,17.26a.31.31,0,0,0-.22.14"/><path class="cls-23" d="M21.22,17.45s-.11-.05-.16.09"/><path class="cls-23" d="M21.28,17.59s-.11-.05-.17.09"/><path class="cls-23" d="M21.34,17.73s-.06-.05-.12.09"/><path class="cls-23" d="M21.39,17.86s-.05,0-.11.14"/><path class="cls-23" d="M21.5,18c-.05.05-.05.1-.05.19"/><path class="cls-23" d="M21.62,18.14c-.06.05-.06.1-.06.19"/><path class="cls-23" d="M21.79,18.28c-.06,0-.12,0-.06.19"/><path class="cls-23" d="M21.9,18.37c-.06,0-.06.05-.06.19"/><path class="cls-23" d="M21.84,16.38s-.17,0-.22,0"/><path class="cls-23" d="M21.73,16.52a.15.15,0,0,0-.17.05"/><path class="cls-23" d="M21.67,16.71a.22.22,0,0,0-.17.09"/><path class="cls-23" d="M21.62,16.89a.19.19,0,0,0-.17.14"/><path class="cls-23" d="M21.62,17.17a.19.19,0,0,0-.17.14"/><path class="cls-23" d="M21.62,17.36s-.06,0-.12.13"/><path class="cls-23" d="M21.73,17.54s-.11-.05-.17.14"/><path class="cls-23" d="M21.79,17.68s-.06,0-.12.14"/><path class="cls-23" d="M21.9,17.86s-.11,0-.06.14"/><path class="cls-23" d="M22,18s-.06,0-.06.18"/><path class="cls-23" d="M22.18,18.1a.12.12,0,0,0-.12.14"/><path class="cls-23" d="M22.18,16.66a.49.49,0,0,0-.23.05"/><path class="cls-23" d="M22.12,16.85a.22.22,0,0,0-.22,0"/><path class="cls-23" d="M22.06,17s-.11,0-.22.09"/><path class="cls-23" d="M22.06,17.22a.18.18,0,0,0-.16.14"/><path class="cls-23" d="M22.12,17.4s-.11,0-.11.19"/><path class="cls-23" d="M22.23,17.59s-.11-.05-.11.14"/><path class="cls-23" d="M22.34,17.68s-.11,0-.05.18"/><path class="cls-23" d="M22.46,17.77s-.12,0-.06.19"/><path class="cls-23" d="M22.57,16.75a.91.91,0,0,0-.23.1"/><path class="cls-23" d="M22.51,16.94s-.11-.05-.22.09"/><path class="cls-23" d="M22.46,17.13s-.12-.05-.12,0"/><path class="cls-23" d="M22.46,17.22s-.06,0-.12.09"/><path class="cls-23" d="M22.57,17.36s-.11,0-.11.09"/><path class="cls-23" d="M22.62,17.45a.18.18,0,0,0-.05.14"/><path class="cls-23" d="M22.74,17.54s-.12.05-.06.14"/><path class="cls-28" d="M23.19,17.36a3.6,3.6,0,0,0,1.06,2.54l-.22.37-.67-.18-2.08.42s.9-.56.95-1.21a.4.4,0,0,0-.28-.55Z"/><path class="cls-28" d="M25.66,20l-.4.33s.06-.65-.5-.56a1.75,1.75,0,0,0-.68.88l-.67-.51a3.2,3.2,0,0,1-1.74.56s-1,0-1.12.23h-.5a2.63,2.63,0,0,1,1.74-.65s1.34-.14,1.57-.6L24,20s.62-.88,1.23-.46A.9.9,0,0,1,25.66,20Z"/><polygon class="cls-28" points="23.24 16.66 23.02 16.75 21.95 15.55 22.34 15.37 23.24 16.66"/><polygon class="cls-28" points="23.02 17.31 23.19 17.4 22.18 18.75 21.73 18.61 23.02 17.31"/><path class="cls-28" d="M22.91,16.94a.16.16,0,0,1,.17-.14L23,16.66c.06,0,.17,0,.22,0a1.71,1.71,0,0,1,.23,0v.14a.13.13,0,0,1,.11.14l.17-.05c0,.05.05.1.05.19s-.05.09-.05.18l-.11,0-.17.14.05.09a.53.53,0,0,1-.28,0,.7.7,0,0,1-.28,0l.06-.09a.81.81,0,0,1-.17-.19l-.11,0v-.33Z"/><path class="cls-23" d="M23.36,17.08c0,.05-.06.05-.12.05s-.11,0-.11-.05.06-.09.11-.09S23.36,17,23.36,17.08Z"/><path class="cls-23" d="M23.47,17.08a.22.22,0,0,1-.23.18.22.22,0,0,1-.22-.18c0-.14.11-.19.22-.19S23.47,16.94,23.47,17.08Z"/><path class="cls-33" d="M26.72,20.46s.22-.23.73-.05h.22s-.22.1-.22.14S26.78,20.64,26.72,20.46Z"/><path class="cls-34" d="M26.78,20.46h.61"/><line class="cls-35" x1="27" y1="20.46" x2="27.06" y2="20.37"/><line class="cls-35" x1="27.11" y1="20.46" x2="27.17" y2="20.41"/><line class="cls-35" x1="27.22" y1="20.46" x2="27.28" y2="20.37"/><line class="cls-35" x1="27" y1="20.46" x2="27.06" y2="20.51"/><line class="cls-35" x1="27.11" y1="20.46" x2="27.17" y2="20.51"/><line class="cls-35" x1="27.22" y1="20.46" x2="27.28" y2="20.51"/><path class="cls-33" d="M26.5,20.51s.28-.19.78.09a.56.56,0,0,1,.17,0s-.23.05-.23.1S26.55,20.74,26.5,20.51Z"/><path class="cls-34" d="M26.55,20.51s.56.09.67.13"/><line class="cls-35" x1="26.78" y1="20.55" x2="26.89" y2="20.51"/><line class="cls-35" x1="26.89" y1="20.55" x2="27" y2="20.51"/><line class="cls-35" x1="27" y1="20.55" x2="27.06" y2="20.55"/><line class="cls-35" x1="26.78" y1="20.55" x2="26.89" y2="20.6"/><line class="cls-35" x1="26.89" y1="20.55" x2="26.94" y2="20.64"/><line class="cls-35" x1="27" y1="20.6" x2="27.06" y2="20.64"/><path class="cls-33" d="M19.37,21s-.22.19-.73,0a.74.74,0,0,0-.22,0l.22-.1S19.32,20.78,19.37,21Z"/><path class="cls-34" d="M19.37,21a3.56,3.56,0,0,1-.67,0"/><line class="cls-35" x1="19.09" y1="20.97" x2="19.04" y2="21.01"/><line class="cls-35" x1="18.98" y1="20.97" x2="18.92" y2="21.01"/><line class="cls-35" x1="18.87" y1="20.97" x2="18.81" y2="21.01"/><line class="cls-35" x1="19.15" y1="20.97" x2="19.04" y2="20.92"/><line class="cls-35" x1="18.98" y1="20.97" x2="18.92" y2="20.92"/><line class="cls-35" x1="18.87" y1="20.97" x2="18.87" y2="20.92"/><path class="cls-33" d="M26.27,20.55a.78.78,0,0,1,.73.14l.22.09-.28,0S26.27,20.78,26.27,20.55Z"/><path class="cls-34" d="M26.33,20.6a5.31,5.31,0,0,1,.61.14"/><line class="cls-35" x1="26.55" y1="20.6" x2="26.66" y2="20.6"/><line class="cls-35" x1="26.66" y1="20.64" x2="26.72" y2="20.64"/><line class="cls-35" x1="26.72" y1="20.69" x2="26.83" y2="20.64"/><line class="cls-35" x1="26.5" y1="20.64" x2="26.61" y2="20.69"/><line class="cls-35" x1="26.61" y1="20.64" x2="26.66" y2="20.74"/><line class="cls-35" x1="26.72" y1="20.69" x2="26.78" y2="20.74"/><path class="cls-33" d="M25.82,20.64s.28-.18.79.14a.52.52,0,0,1,.17,0l-.28,0S25.82,20.83,25.82,20.64Z"/><path class="cls-34" d="M25.88,20.64s.5.14.62.19"/><line class="cls-35" x1="26.1" y1="20.69" x2="26.21" y2="20.64"/><line class="cls-35" x1="26.21" y1="20.69" x2="26.27" y2="20.69"/><line class="cls-35" x1="26.33" y1="20.74" x2="26.38" y2="20.69"/><line class="cls-35" x1="26.1" y1="20.69" x2="26.16" y2="20.78"/><line class="cls-35" x1="26.21" y1="20.74" x2="26.27" y2="20.78"/><line class="cls-35" x1="26.33" y1="20.74" x2="26.33" y2="20.78"/><path class="cls-36" d="M25.26,20.41s.34-.23.95.1l.29.09s-.34.09-.4.09S25.26,20.74,25.26,20.41Z"/><path class="cls-37" d="M25.32,20.46a7,7,0,0,1,.78.14"/><line class="cls-38" x1="25.6" y1="20.46" x2="25.71" y2="20.41"/><line class="cls-38" x1="25.71" y1="20.51" x2="25.82" y2="20.46"/><line class="cls-38" x1="25.88" y1="20.51" x2="25.93" y2="20.46"/><line class="cls-38" x1="25.6" y1="20.51" x2="25.71" y2="20.6"/><line class="cls-38" x1="25.71" y1="20.51" x2="25.82" y2="20.6"/><line class="cls-38" x1="25.88" y1="20.55" x2="25.93" y2="20.6"/><path class="cls-36" d="M24.76,20.37s.17-.38.95-.24a.73.73,0,0,0,.22,0s-.22.18-.22.23S24.93,20.64,24.76,20.37Z"/><path class="cls-37" d="M24.81,20.37s.68-.14.79-.14"/><line class="cls-38" x1="25.09" y1="20.27" x2="25.2" y2="20.23"/><line class="cls-38" x1="25.2" y1="20.27" x2="25.32" y2="20.18"/><line class="cls-38" x1="25.37" y1="20.23" x2="25.37" y2="20.13"/><line class="cls-38" x1="25.09" y1="20.32" x2="25.2" y2="20.37"/><line class="cls-38" x1="25.2" y1="20.27" x2="25.32" y2="20.32"/><line class="cls-38" x1="25.37" y1="20.27" x2="25.43" y2="20.32"/><path class="cls-36" d="M23.92,20.27s.44-.09.84.47l.17.13-.34,0S23.8,20.55,23.92,20.27Z"/><path class="cls-37" d="M24,20.32a7.78,7.78,0,0,1,.67.42"/><line class="cls-38" x1="24.2" y1="20.46" x2="24.36" y2="20.46"/><line class="cls-38" x1="24.31" y1="20.51" x2="24.42" y2="20.51"/><line class="cls-38" x1="24.48" y1="20.6" x2="24.53" y2="20.55"/><line class="cls-38" x1="24.2" y1="20.46" x2="24.25" y2="20.6"/><line class="cls-38" x1="24.31" y1="20.55" x2="24.36" y2="20.6"/><line class="cls-38" x1="24.42" y1="20.6" x2="24.42" y2="20.69"/><path class="cls-39" d="M20.44,20.87s-.11.42-.9.33a1.35,1.35,0,0,0-.28,0,1.61,1.61,0,0,0,.23-.27S20.22,20.55,20.44,20.87Z"/><path class="cls-40" d="M20.38,20.87s-.67.19-.78.19"/><line class="cls-41" x1="20.1" y1="20.97" x2="20.05" y2="21.06"/><line class="cls-41" x1="19.99" y1="21.01" x2="19.93" y2="21.11"/><line class="cls-41" x1="19.82" y1="21.06" x2="19.82" y2="21.15"/><line class="cls-41" x1="20.1" y1="20.92" x2="19.93" y2="20.92"/><line class="cls-41" x1="19.99" y1="20.97" x2="19.88" y2="20.97"/><line class="cls-41" x1="19.82" y1="21.01" x2="19.77" y2="20.97"/><path class="cls-36" d="M24.87,20.41a.81.81,0,0,1,.79.42,1.19,1.19,0,0,0,.22.14h-.39S24.7,20.69,24.87,20.41Z"/><path class="cls-37" d="M24.87,20.46s.56.32.67.41"/><line class="cls-38" x1="25.15" y1="20.55" x2="25.26" y2="20.6"/><line class="cls-38" x1="25.26" y1="20.64" x2="25.37" y2="20.64"/><line class="cls-38" x1="25.37" y1="20.69" x2="25.43" y2="20.69"/><line class="cls-38" x1="25.09" y1="20.6" x2="25.15" y2="20.69"/><line class="cls-38" x1="25.2" y1="20.64" x2="25.26" y2="20.74"/><line class="cls-38" x1="25.32" y1="20.74" x2="25.37" y2="20.78"/><path class="cls-36" d="M24,20.32s.28-.33.95-.05h.28a2.59,2.59,0,0,0-.33.19S24.08,20.6,24,20.32Z"/><path class="cls-37" d="M24.08,20.32h.85"/><line class="cls-38" x1="24.36" y1="20.32" x2="24.48" y2="20.23"/><line class="cls-38" x1="24.53" y1="20.32" x2="24.59" y2="20.23"/><line class="cls-38" x1="24.64" y1="20.32" x2="24.7" y2="20.23"/><line class="cls-38" x1="24.36" y1="20.32" x2="24.48" y2="20.37"/><line class="cls-38" x1="24.53" y1="20.32" x2="24.59" y2="20.37"/><line class="cls-38" x1="24.64" y1="20.32" x2="24.7" y2="20.37"/><path class="cls-33" d="M19.49,20.83s-.17-.23-.73-.14a.63.63,0,0,1-.23-.05s.23.14.23.19S19.37,21,19.49,20.83Z"/><path class="cls-34" d="M19.43,20.83s-.51-.09-.62-.09"/><line class="cls-35" x1="19.21" y1="20.78" x2="19.15" y2="20.74"/><line class="cls-35" x1="19.09" y1="20.78" x2="19.04" y2="20.74"/><line class="cls-35" x1="18.98" y1="20.74" x2="18.98" y2="20.69"/><line class="cls-35" x1="19.21" y1="20.78" x2="19.09" y2="20.83"/><line class="cls-35" x1="19.09" y1="20.78" x2="19.04" y2="20.83"/><line class="cls-35" x1="18.98" y1="20.78" x2="18.92" y2="20.78"/><path class="cls-39" d="M20.94,20.37s-.33.32-1-.05a.61.61,0,0,0-.22-.05l.34-.18S20.89,20,20.94,20.37Z"/><path class="cls-40" d="M20.89,20.32s-.67-.05-.84-.09"/><line class="cls-41" x1="20.61" y1="20.32" x2="20.44" y2="20.41"/><line class="cls-41" x1="20.44" y1="20.32" x2="20.33" y2="20.37"/><line class="cls-41" x1="20.33" y1="20.32" x2="20.22" y2="20.37"/><line class="cls-41" x1="20.61" y1="20.32" x2="20.49" y2="20.23"/><line class="cls-41" x1="20.44" y1="20.27" x2="20.38" y2="20.23"/><line class="cls-41" x1="20.33" y1="20.27" x2="20.27" y2="20.18"/><path class="cls-39" d="M20.61,20.64s-.17.42-1,.23a.36.36,0,0,0-.22,0s.22-.18.22-.23S20.44,20.32,20.61,20.64Z"/><path class="cls-40" d="M20.55,20.64a3.81,3.81,0,0,1-.78.1"/><line class="cls-41" x1="20.27" y1="20.74" x2="20.16" y2="20.83"/><line class="cls-41" x1="20.16" y1="20.74" x2="20.1" y2="20.83"/><line class="cls-41" x1="19.99" y1="20.78" x2="19.99" y2="20.83"/><line class="cls-41" x1="20.27" y1="20.69" x2="20.16" y2="20.64"/><line class="cls-41" x1="20.16" y1="20.69" x2="20.05" y2="20.64"/><line class="cls-41" x1="19.99" y1="20.74" x2="19.93" y2="20.69"/><path class="cls-26" d="M16.79,19.58l-.28.14s.28.23,0,.37c0,0-.56.09-.56-.19l-.28.09a.75.75,0,0,0,.9.33S17.07,20,16.79,19.58Z"/><path class="cls-16" d="M16.74,20s-.17-.41-.39-.46c0,0-.06-.19-.17-.19A.32.32,0,0,0,16,19s.11-.23-.23-.51a.54.54,0,0,0,.12-.23s.11,0,.11,0a.42.42,0,0,0,.5-.51s0-.23-.11-.28a.2.2,0,0,0,0-.23s-.17-.65-1.12-.28c0,0-1.07.33-.85,1a.31.31,0,0,0,.06.28s-.11.09.05.41a.76.76,0,0,0,.06.28s.06.24.17.28a.61.61,0,0,0,.33.19,1.49,1.49,0,0,0,.23.14.29.29,0,0,0,.28.14.58.58,0,0,0,.28.23,1.33,1.33,0,0,0,.28.23l.23.14Z"/><path class="cls-23" d="M16.51,20.18l-.89-.83a2,2,0,0,1-.45-1.25"/><path class="cls-23" d="M15.9,18.24s-.23,0-.23-.1-.44.05-.39-.14c0,0-.39-.09-.39-.27,0,0-.28-.14-.28,0"/><path class="cls-23" d="M15,17s.84-.14.9.6"/><path class="cls-26" d="M15.39,20.41a4.82,4.82,0,0,1-.5.23s.16-.41-.23-.51l.57-.18.27.32Z"/><path class="cls-26" d="M16.23,21.71s.17-.05.17.09v1.39s0,.14-.28,0a.61.61,0,0,1-.45-.78A.88.88,0,0,1,16.23,21.71Z"/><path class="cls-16" d="M16.23,22a5.21,5.21,0,0,1,0,1,.1.1,0,0,1-.17-.05s-.28-.51.06-.83C16.12,22.08,16.18,21.94,16.23,22Z"/><path class="cls-26" d="M16.35,29.67s.16-.05.16.09v1.39s-.05.14-.28.05a.66.66,0,0,1-.5-.79A1,1,0,0,1,16.35,29.67Z"/><path class="cls-16" d="M16.35,30a6.25,6.25,0,0,1,0,1,.1.1,0,0,1-.17-.05s-.28-.51,0-.83C16.18,30,16.23,29.9,16.35,30Z"/><path class="cls-26" d="M22.29,35s-.06-.1.11-.1h1.35s.11,0,.05.19c0,0-.11.32-.78.32C23,35.36,22.4,35.32,22.29,35Z"/><path class="cls-16" d="M22.57,35a5.4,5.4,0,0,1,.9,0s.11.09,0,.13-.51.19-.79,0C22.68,35,22.51,35,22.57,35Z"/><path class="cls-26" d="M16.35,26.25c0,.41-.23.73-.51.73s-.5-.32-.5-.73.22-.79.5-.79S16.35,25.83,16.35,26.25Z"/><path class="cls-24" d="M14.66,24.53l.11-.32-.16-.33-.68,0-.28.27v.37h-.16a14.26,14.26,0,0,1,.11,1.81,12.39,12.39,0,0,1-.06,1.44l.67.27.51-.23s-.06-1.25,0-3.24Z"/><path class="cls-26" d="M13.54,27.68V28a1,1,0,0,0,1,.14s.23-.1.23-.14v-.23a.78.78,0,0,1-.56.18A1,1,0,0,1,13.54,27.68Z"/><path class="cls-26" d="M14.66,27.73V28a1.14,1.14,0,0,1,.73,1.12,3.62,3.62,0,0,1-.28,1.57s-.84,2.13.06,2.22c0,0,1,.18.78-.51,0,0,0-.79-.72-.37,0,0-.06.18.16.18,0,0,.11,0,.11-.09l.12.56s-.57.18-.57-.51a6.36,6.36,0,0,1,.4-1.53S16.35,28.42,14.66,27.73Z"/><path class="cls-23" d="M14.77,32.31s.73,1,1.13-.05"/><path class="cls-26" d="M17.3,34.3l.28.18a1.2,1.2,0,0,1-.17.33.75.75,0,0,1-.5.27L16.57,35a.93.93,0,0,0,.5-.24A.4.4,0,0,0,17.3,34.3Z"/><path class="cls-16" d="M15.9,33.28a8.49,8.49,0,0,0,.56.74S15.39,34.11,15.9,33.28Z"/><path class="cls-26" d="M29.08,19.58l.22.14a.22.22,0,0,0,.06.37s.56.09.5-.19l.28.09a.71.71,0,0,1-.9.33S28.74,20,29.08,19.58Z"/><path class="cls-16" d="M29.13,20s.11-.41.34-.46c0,0,.05-.19.17-.19s-.12-.27.22-.41c0,0-.17-.23.17-.51a1,1,0,0,0-.06-.23.31.31,0,0,1-.17,0s-.56.09-.44-.51c0,0,0-.23.05-.28a.19.19,0,0,1,.11-.23s.17-.65,1.12-.28c0,0,1.07.33.85,1a.31.31,0,0,1-.06.28s.11.09-.06.41a.48.48,0,0,1-.11.28s0,.24-.17.28a.36.36,0,0,1-.28.19l-.28.14s0,.14-.22.14a.61.61,0,0,1-.34.23.71.71,0,0,1-.22.23l-.28.14Z"/><path class="cls-23" d="M29.36,20.18s.44-.42.83-.83a1.93,1.93,0,0,0,.51-1.25"/><path class="cls-23" d="M30,18.24s.17,0,.22-.1.45.05.4-.14c0,0,.34-.09.39-.27,0,0,.23-.14.28,0"/><path class="cls-23" d="M30.87,17s-.9-.14-.9.6"/><path class="cls-26" d="M31.09,24.11s.17,1.12,1,.42a.66.66,0,0,0-.28-.83s-1.57-1.07-1.63-1.9c0,0-.39-1.39.34-1.9a1,1,0,0,1,1.24-.09s.56.93-.56.93c0,0,.89-.61.16-1a.85.85,0,0,0-.95.75s-.23,1.29.34,1.8c0,0,.67.88,1.06,1,0,0,.84.55.56,1.15a.77.77,0,0,1-1.34.19S30.81,24.3,31.09,24.11Z"/><path class="cls-26" d="M30.48,20.41a2.16,2.16,0,0,0,.5.23s-.17-.41.23-.51L30.59,20l-.22.32Z"/><path class="cls-26" d="M29.58,21.71s-.17-.05-.17.09l.06,1.39s0,.14.28,0c0,0,.5-.09.44-.78A.86.86,0,0,0,29.58,21.71Z"/><path class="cls-16" d="M29.64,22a5.21,5.21,0,0,0,0,1,.09.09,0,0,0,.16-.05s.29-.51-.05-.83C29.75,22.08,29.69,21.94,29.64,22Z"/><path class="cls-26" d="M29.47,29.67s-.11-.05-.17.09l.06,1.39s0,.14.28.05c0,0,.5-.09.45-.79A.88.88,0,0,0,29.47,29.67Z"/><path class="cls-16" d="M29.52,30a6.25,6.25,0,0,0,0,1,.1.1,0,0,0,.17-.05s.28-.51-.05-.83C29.64,30,29.58,29.9,29.52,30Z"/><path class="cls-26" d="M29.52,26.25c0,.41.23.73.45.73s.51-.32.51-.73-.23-.79-.51-.79S29.52,25.83,29.52,26.25Z"/><path class="cls-16" d="M31.09,24.11s.12-.6.79-.27c0,0,.5.32,0,.6,0,0-.51.18-.67-.14a.18.18,0,0,1,.16-.23s.28,0,.23.14,0,0,.17,0,.17-.28-.17-.28A.51.51,0,0,0,31.09,24.11Z"/><path class="cls-26" d="M32.27,27.68a1.22,1.22,0,0,1,.06.28,1.14,1.14,0,0,1-1,.14L31.09,28v-.23a1,1,0,0,0,.56.18S32.1,27.91,32.27,27.68Z"/><path class="cls-24" d="M30.14,32.17l.5-.14.23.37.06.42a3.06,3.06,0,0,1-1.57,2L29,35l-.45-.28v-.33s1.29-1.11,1.41-1.89Z"/><path class="cls-16" d="M30,33.28a8.49,8.49,0,0,1-.56.74S30.48,34.11,30,33.28Z"/><path class="cls-26" d="M28.57,34.3l-.28.18a.6.6,0,0,0,.11.33,1,1,0,0,0,.51.27l.33-.13a1,1,0,0,1-.5-.24A.38.38,0,0,1,28.57,34.3Z"/><path class="cls-14" d="M14.61,34s.11-.42-.12-.51a.7.7,0,0,1-.28.55l-.11.37A.65.65,0,0,0,14.61,34Z"/><path class="cls-14" d="M14.77,35.13a1.84,1.84,0,0,1-.28-.32s-.56-.33-.39-.42a.32.32,0,0,1-.39-.32.47.47,0,0,0-.34-.42c-.17,0-.11-.18-.11-.18-.22.51.34.78.34.78a.28.28,0,0,0,.28.19s-.06.18-.17.18-.28.19-.28.42c0,0-.17.23-.34.14,0,0,.34.37.79-.19,0,0,.39,0,.5.14a.85.85,0,0,0,.51.1S14.77,35.18,14.77,35.13Z"/><path class="cls-26" d="M14,34.39s.5-.18.28-.6a.39.39,0,0,0-.62.05S13.49,34.25,14,34.39Z"/><path class="cls-26" d="M13.6,34.25s-.4-.09-.51.09c0,0-.28.51.23.56a.43.43,0,0,0,.5-.32S13.77,34.3,13.6,34.25Z"/><path class="cls-26" d="M14.05,34.62a.64.64,0,0,0-.23.56s-.05.28-.17.32-.28.74.34.65a.39.39,0,0,0,.56-.23s0-.37-.17-.46a1.69,1.69,0,0,1-.11-.51S14.27,34.67,14.05,34.62Z"/><path class="cls-26" d="M14.1,34.39a.56.56,0,0,1,.67-.09s.57.23-.16.65C14.61,35,14.1,34.81,14.1,34.39Z"/><path class="cls-14" d="M31.37,34s-.11-.42.12-.51a1,1,0,0,0,.28.55l.17.37A.71.71,0,0,1,31.37,34Z"/><path class="cls-14" d="M31.26,35.13a1.47,1.47,0,0,0,.28-.32s.56-.33.4-.42a.27.27,0,0,0,.33-.32.47.47,0,0,1,.34-.42c.16,0,.11-.18.11-.18a.56.56,0,0,1-.28.78.37.37,0,0,1-.34.19c.06,0,.06.18.17.18a.92.92,0,0,1,.34.42s.11.23.28.14c0,0-.34.37-.73-.19a1.12,1.12,0,0,0-.56.14.85.85,0,0,1-.51.1A.68.68,0,0,0,31.26,35.13Z"/><path class="cls-26" d="M32,34.39a.46.46,0,0,1-.28-.6s.28-.32.67.05C32.38,33.84,32.5,34.25,32,34.39Z"/><path class="cls-26" d="M32.38,34.25s.45-.09.51.09c0,0,.28.51-.23.56,0,0-.33.09-.45-.32C32.21,34.58,32.21,34.3,32.38,34.25Z"/><path class="cls-26" d="M31.94,34.62a.64.64,0,0,1,.22.56s.05.28.22.32c0,0,.28.74-.39.65,0,0-.39.19-.5-.23,0,0,0-.37.11-.46a1.69,1.69,0,0,0,.11-.51S31.71,34.67,31.94,34.62Z"/><path class="cls-26" d="M31.94,34.39s-.4-.32-.68-.09c0,0-.56.23.17.65C31.43,35,31.94,34.81,31.94,34.39Z"/><path class="cls-16" d="M31.77,28.93s.5-.23.22.32c0,0,.62-.23.45.24,0,0,.28.6-.34.37,0,0,.28.55-.33.37,0,0-.62.13-.4-.37,0,0-.56.27-.33-.24,0,0-.34-.55.39-.28C31.43,29.34,31,28.74,31.77,28.93Z"/><path class="cls-23" d="M31.54,29.58c0,.09.06.14.17.14s.23,0,.23-.14a.24.24,0,0,0-.23-.19A.18.18,0,0,0,31.54,29.58Z"/><path class="cls-23" d="M31.71,29.39v-.32"/><path class="cls-23" d="M31.71,30.09v-.33"/><path class="cls-23" d="M31.49,29.58a1.58,1.58,0,0,0-.4,0"/><path class="cls-23" d="M32.33,29.58a1.47,1.47,0,0,0-.39,0"/><path class="cls-42" d="M28.4,31.38a.17.17,0,0,0,0-.18.16.16,0,0,0,0-.23c.06-.1-.06-.19-.06-.19a.14.14,0,0,0-.05-.09c.17-.19.05-.23.05-.23s0-.23,0-.23a.16.16,0,0,0,0-.24c.12-.13-.05-.32-.05-.32s0-.18,0-.18a.5.5,0,0,0,0-.28c.11-.09,0-.28,0-.28a.46.46,0,0,0,0-.28.29.29,0,0,0,0-.23.33.33,0,0,0,0-.23V28a.21.21,0,0,0,.05-.14s.06,0,.06-.09H28c-.05.09.06.14.06.14a.25.25,0,0,0,0,.23c-.11.05,0,.19,0,.19s0,.23,0,.23,0,.32,0,.32,0,.24,0,.24a.22.22,0,0,0,0,.27c-.11.05,0,.28,0,.28a.28.28,0,0,0,0,.23c-.06.05,0,.23,0,.23a.23.23,0,0,0,0,.28c-.06.09.06.18.06.18a.22.22,0,0,0,0,.28c-.29.1-.17.28-.17.28a.15.15,0,0,0-.06.23.28.28,0,0,0,0,.23c-.06.1.06.19.06.19a.14.14,0,0,0,.05.09c-.05.05.06.19.06.19a.29.29,0,0,0-.06.13.35.35,0,0,0-.05.19c-.06,0-.17.14-.17.14a1.81,1.81,0,0,0-.17.19c-.11,0-.22.13-.22.13a1.43,1.43,0,0,0-.28.1l-.34,0c-.06,0-.22,0-.22,0a3.46,3.46,0,0,0-.4,0,.49.49,0,0,0-.28,0h-.33c-.17,0-.23,0-.23,0s0,0-.06,0-.16,0-.16,0a.16.16,0,0,0-.17,0c-.06,0-.23,0-.23,0s-.22,0-.22,0-.17.09-.17.09a.13.13,0,0,0-.17,0s-.22.18-.22.18a.29.29,0,0,0-.28.1.4.4,0,0,0-.28.13c-.06,0-.17,0-.17,0s-.22,0-.22,0-.12-.09-.17,0a.43.43,0,0,0-.28-.13.31.31,0,0,0-.28-.1s-.17-.23-.28-.18-.06-.1-.11,0a.52.52,0,0,0-.17-.09s-.23,0-.23,0-.17,0-.22,0a.16.16,0,0,0-.17,0s-.11,0-.17,0,0,0,0,0-.06,0-.23,0h-.33a.52.52,0,0,0-.29,0,3.53,3.53,0,0,0-.39,0s-.17,0-.22,0L19,33a1.43,1.43,0,0,0-.28-.1s-.11-.13-.22-.13l-.17-.19s-.11-.14-.17-.14,0-.14-.06-.19v-.13s.06-.14,0-.19.06,0,.06-.09.11-.09.06-.19a.33.33,0,0,0,0-.23.15.15,0,0,0-.06-.23s.11-.18-.17-.28a.23.23,0,0,0,0-.28s.11-.09.06-.18a.23.23,0,0,0,0-.28s0-.18,0-.23.11-.14,0-.23.11-.23,0-.28a.22.22,0,0,0,0-.27s.11-.14,0-.24.11-.23,0-.32.11-.14,0-.23.11-.14,0-.19a.29.29,0,0,0,0-.23s.11-.05,0-.14h-.44a.14.14,0,0,0,.05.09.19.19,0,0,0,.06.14.35.35,0,0,0,.05.19s-.11.14-.05.23a.25.25,0,0,0,0,.23.39.39,0,0,0,0,.28s-.11.19,0,.28a.42.42,0,0,0,0,.28s-.06.13,0,.18-.17.19-.06.32a.17.17,0,0,0,0,.24.16.16,0,0,0,0,.23s-.11,0,.06.23c0,0-.06,0-.06.09s-.11.09-.05.19-.12.09,0,.23a.17.17,0,0,0,0,.18s-.12.05,0,.19-.06.18.05.23a.38.38,0,0,1,.06.14s0,.18.05.23,0,.18.06.23a.84.84,0,0,0,.11.19,1.21,1.21,0,0,0,.17.18s.11.14.22.14a.29.29,0,0,0,.28.14s.06.14.34.14c0,0,.23.09.28,0a1,1,0,0,0,.39,0l.34.05a.49.49,0,0,0,.28,0,.73.73,0,0,0,.34,0s.17,0,.22,0a1.4,1.4,0,0,0,.23,0s.05.14.16,0,0,.1.17.05a.28.28,0,0,0,.17,0,.38.38,0,0,0,.23,0s0,0,.11,0a1.24,1.24,0,0,0,.28.13,1,1,0,0,0,.33.14s.17.14.28.1.06.09.12.09.22,0,.22,0,.11-.09.11-.09.28-.1.28-.1a1,1,0,0,0,.34-.14,1.24,1.24,0,0,0,.28-.13c.11,0,.11,0,.11,0a.39.39,0,0,0,.23,0,.23.23,0,0,0,.16,0c.17,0,.17-.05.17-.05a.1.1,0,0,0,.17,0,1.23,1.23,0,0,0,.22,0c.06,0,.23,0,.23,0a.74.74,0,0,0,.34,0,.49.49,0,0,0,.28,0l.33-.05a1,1,0,0,0,.4,0c0,.05.28,0,.28,0,.28,0,.33-.14.33-.14.23,0,.28-.14.28-.14s.23-.14.23-.14a2.22,2.22,0,0,0,.17-.18.84.84,0,0,0,.11-.19c.06,0,.06-.23.06-.23s.05-.23.05-.23a.42.42,0,0,1,.05-.14c.12-.05.06-.23.06-.23s0-.19,0-.19Zm0-3.61v-.14c.06-.09,0-.27,0-.27a.3.3,0,0,0,0-.24.12.12,0,0,0-.06-.18c.06-.09-.05-.14-.05-.14a.21.21,0,0,0-.05-.14.32.32,0,0,0,.05-.28.43.43,0,0,0,0-.27.29.29,0,0,0,0-.23.5.5,0,0,0,0-.28.5.5,0,0,0,0-.28c.11-.09,0-.23,0-.23a.28.28,0,0,0-.05-.28.25.25,0,0,0,0-.28.29.29,0,0,0,0-.23.57.57,0,0,0,.05-.23.33.33,0,0,0,0-.23.17.17,0,0,0-.05-.19c.22-.14.05-.23.05-.23.17-.09,0-.23,0-.23.17-.14,0-.23,0-.23a.15.15,0,0,0-.05-.23c.05-.05-.06-.14-.06-.14s-.06-.23-.06-.23c.12-.19-.05-.19-.05-.19,0-.18-.29-.18-.29-.18s-.28,0-.28,0-.28,0-.28,0-.28,0-.28,0a.39.39,0,0,0-.28,0c-.05-.09-.28,0-.28,0s-.33,0-.33,0a.28.28,0,0,0-.28,0,.32.32,0,0,0-.23,0s-.11,0-.11,0c0-.18-.17-.09-.17-.09a.18.18,0,0,0-.22,0,.16.16,0,0,0-.23-.05.18.18,0,0,0-.22,0c-.06-.09-.23.05-.23.05-.22-.14-.28-.05-.28-.05s-.22-.09-.22-.09c-.17-.14-.28-.05-.28-.05-.17-.09-.22,0-.22,0a.35.35,0,0,0-.4,0h0s-.05-.14-.28,0c0,0-.06-.05-.22,0a.22.22,0,0,0-.28.05s-.17,0-.23.09-.05-.09-.28.05c0,0-.17-.14-.22-.05a.19.19,0,0,0-.23,0s-.11-.09-.22.05-.11-.09-.17,0-.22-.09-.22.09c0,0-.12,0-.12,0a.29.29,0,0,0-.22,0s-.17-.09-.28,0-.22-.09-.34,0-.22-.14-.28,0a.38.38,0,0,0-.28,0s-.17-.1-.28,0-.22-.1-.28,0-.17-.14-.28,0-.28,0-.28.18c0,0-.17,0,0,.19,0,0-.12.13-.06.23s-.11.09-.06.14-.16.09,0,.23c0,0-.22.09-.05.23,0,0-.17.14,0,.23,0,0-.17.09.05.23,0,0-.11.09-.05.19a.28.28,0,0,0,0,.23.57.57,0,0,0,.05.23.29.29,0,0,0,0,.23.23.23,0,0,0,0,.28.25.25,0,0,0-.05.28s-.11.14,0,.23a.29.29,0,0,0,.05.28s-.11.18-.05.28a.25.25,0,0,0,0,.23.27.27,0,0,0,.05.27.23.23,0,0,0,0,.28.21.21,0,0,0-.05.14s-.11.05-.06.14-.11,0-.05.18a.3.3,0,0,0,0,.24s-.06.18,0,.27v.14h.5c.06,0,.11-.09,0-.18s.17-.19,0-.23c0,0,.17-.19,0-.28,0,0,.17-.14-.06-.23a.39.39,0,0,0,0-.28s.12-.19,0-.28.12-.23,0-.32c0,0,.11-.09,0-.19a.39.39,0,0,0,0-.28.2.2,0,0,0,0-.27.22.22,0,0,0,0-.28s.06-.19,0-.24a.28.28,0,0,0,0-.23.28.28,0,0,0,0-.23s.12-.18,0-.27.06-.14,0-.19.12-.05.12-.14.11-.09.05-.18.17-.14.06-.28.05-.14-.06-.19a.34.34,0,0,0-.17-.37s.17-.14.12-.23a.18.18,0,0,0,.05-.14s.17,0,.17,0,.17,0,.22,0,.17.09.23,0a.59.59,0,0,0,.34,0,.48.48,0,0,0,.28,0,.45.45,0,0,0,.33,0s.23.09.34,0a.49.49,0,0,0,.28,0,.31.31,0,0,0,.17,0s.11.14.17,0a.26.26,0,0,0,.28,0s.16.05.22,0a.17.17,0,0,0,.11,0,.24.24,0,0,0,.23,0,2.65,2.65,0,0,0,.28-.1.19.19,0,0,0,.16-.09.24.24,0,0,0,.23,0,.23.23,0,0,0,.28,0s.22,0,.28-.05.28.1.34,0c0,.1.28.05.28.05a.23.23,0,0,0,.28,0A.22.22,0,0,0,24,22a.22.22,0,0,0,.17.09,2.65,2.65,0,0,0,.28.1.22.22,0,0,0,.22,0,.31.31,0,0,0,.17,0c0,.05.17,0,.17,0a.26.26,0,0,0,.28,0c.06.09.17,0,.17,0a.31.31,0,0,0,.17,0,.49.49,0,0,0,.28,0c.11.09.33,0,.33,0a.48.48,0,0,0,.34,0,.49.49,0,0,0,.28,0c.11,0,.34,0,.34,0s.22,0,.22,0a.49.49,0,0,0,.23,0s.16,0,.16,0a.17.17,0,0,0,.06.14c-.06.09.11.23.11.23a.36.36,0,0,0-.17.37c-.11.05-.05.19-.05.19s.05.28.05.28.06.18.06.18.11.14.11.14S28,24,28,24s0,.27,0,.27a.33.33,0,0,0,0,.23.33.33,0,0,0,0,.23c-.05.05.06.24.06.24a.2.2,0,0,0-.06.28.22.22,0,0,0,0,.27.46.46,0,0,0,0,.28c-.05.1.06.19.06.19-.17.09-.06.32-.06.32s.06.28.06.28a.31.31,0,0,0-.06.28c-.22.09,0,.23,0,.23-.22.09-.05.28-.05.28-.17,0,0,.23,0,.23s0,.14,0,.18Z"/><path class="cls-30" d="M28.4,31.38a.17.17,0,0,0,0-.18.16.16,0,0,0,0-.23c.06-.1-.06-.19-.06-.19a.14.14,0,0,0-.05-.09c.17-.19.05-.23.05-.23s0-.23,0-.23a.16.16,0,0,0,0-.24c.12-.13-.05-.32-.05-.32s0-.18,0-.18a.5.5,0,0,0,0-.28c.11-.09,0-.28,0-.28a.46.46,0,0,0,0-.28.29.29,0,0,0,0-.23.33.33,0,0,0,0-.23V28a.21.21,0,0,0,.05-.14c.12,0,.06-.23.06-.23s0-.27,0-.27a.3.3,0,0,0,0-.24.12.12,0,0,0-.06-.18c.06-.09-.05-.14-.05-.14a.21.21,0,0,0-.05-.14.32.32,0,0,0,.05-.28.43.43,0,0,0,0-.27.29.29,0,0,0,0-.23.5.5,0,0,0,0-.28.5.5,0,0,0,0-.28c.11-.09,0-.23,0-.23a.28.28,0,0,0-.05-.28.25.25,0,0,0,0-.28.29.29,0,0,0,0-.23.57.57,0,0,0,.05-.23.33.33,0,0,0,0-.23.17.17,0,0,0-.05-.19c.22-.14.05-.23.05-.23.17-.09,0-.23,0-.23.17-.14,0-.23,0-.23a.15.15,0,0,0-.05-.23c.05-.05-.06-.14-.06-.14s-.06-.23-.06-.23c.12-.19-.05-.19-.05-.19,0-.18-.29-.18-.29-.18s-.28,0-.28,0-.28,0-.28,0-.28,0-.28,0a.39.39,0,0,0-.28,0c-.05-.09-.28,0-.28,0s-.33,0-.33,0a.28.28,0,0,0-.28,0,.32.32,0,0,0-.23,0s-.11,0-.11,0c0-.18-.17-.09-.17-.09a.18.18,0,0,0-.22,0,.16.16,0,0,0-.23-.05.18.18,0,0,0-.22,0c-.06-.09-.23.05-.23.05-.22-.14-.28-.05-.28-.05s-.22-.09-.22-.09c-.17-.14-.28-.05-.28-.05-.17-.09-.22,0-.22,0a.35.35,0,0,0-.4,0h0s-.05-.14-.28,0c0,0-.06-.05-.22,0a.22.22,0,0,0-.28.05s-.17,0-.23.09-.05-.09-.28.05c0,0-.17-.14-.22-.05a.19.19,0,0,0-.23,0s-.11-.09-.22.05-.11-.09-.17,0-.22-.09-.22.09c0,0-.12,0-.12,0a.29.29,0,0,0-.22,0s-.17-.09-.28,0-.22-.09-.34,0-.22-.14-.28,0a.38.38,0,0,0-.28,0s-.17-.1-.28,0-.22-.1-.28,0-.17-.14-.28,0-.28,0-.28.18c0,0-.17,0,0,.19,0,0-.12.13-.06.23s-.11.09-.06.14-.16.09,0,.23c0,0-.22.09-.05.23,0,0-.17.14,0,.23,0,0-.17.09.05.23,0,0-.11.09-.05.19a.28.28,0,0,0,0,.23.57.57,0,0,0,.05.23.29.29,0,0,0,0,.23.23.23,0,0,0,0,.28.25.25,0,0,0-.05.28s-.11.14,0,.23a.29.29,0,0,0,.05.28s-.11.18-.05.28a.25.25,0,0,0,0,.23.27.27,0,0,0,.05.27.23.23,0,0,0,0,.28.21.21,0,0,0-.05.14s-.11.05-.06.14-.11,0-.05.18a.3.3,0,0,0,0,.24s-.06.18,0,.27-.06.19.05.23a.19.19,0,0,0,.06.14.35.35,0,0,0,.05.19s-.11.14-.05.23a.25.25,0,0,0,0,.23.39.39,0,0,0,0,.28s-.11.19,0,.28a.42.42,0,0,0,0,.28s-.06.13,0,.18-.17.19-.06.32a.17.17,0,0,0,0,.24.16.16,0,0,0,0,.23s-.11,0,.06.23c0,0-.06,0-.06.09s-.11.09-.05.19-.12.09,0,.23a.17.17,0,0,0,0,.18s-.12.05,0,.19-.06.18.05.23a.38.38,0,0,1,.06.14s0,.18.05.23,0,.18.06.23a.84.84,0,0,0,.11.19,1.21,1.21,0,0,0,.17.18s.11.14.22.14a.29.29,0,0,0,.28.14s.06.14.34.14c0,0,.23.09.28,0a1,1,0,0,0,.39,0l.34.05a.49.49,0,0,0,.28,0,.73.73,0,0,0,.34,0s.17,0,.22,0a1.4,1.4,0,0,0,.23,0s.05.14.16,0,0,.1.17.05a.28.28,0,0,0,.17,0,.38.38,0,0,0,.23,0s0,0,.11,0a1.24,1.24,0,0,0,.28.13,1,1,0,0,0,.33.14s.17.14.28.1.06.09.12.09.22,0,.22,0,.11-.09.11-.09.28-.1.28-.1a1,1,0,0,0,.34-.14,1.24,1.24,0,0,0,.28-.13c.11,0,.11,0,.11,0a.39.39,0,0,0,.23,0,.23.23,0,0,0,.16,0c.17,0,.17-.05.17-.05a.1.1,0,0,0,.17,0,1.23,1.23,0,0,0,.22,0c.06,0,.23,0,.23,0a.74.74,0,0,0,.34,0,.49.49,0,0,0,.28,0l.33-.05a1,1,0,0,0,.4,0c0,.05.28,0,.28,0,.28,0,.33-.14.33-.14.23,0,.28-.14.28-.14s.23-.14.23-.14a2.22,2.22,0,0,0,.17-.18.84.84,0,0,0,.11-.19c.06,0,.06-.23.06-.23s.05-.23.05-.23a.42.42,0,0,1,.05-.14c.12-.05.06-.23.06-.23s0-.19,0-.19m-.33-.51c-.29.1-.17.28-.17.28a.15.15,0,0,0-.06.23.28.28,0,0,0,0,.23c-.06.1.06.19.06.19a.14.14,0,0,0,.05.09c-.05.05.06.19.06.19a.29.29,0,0,0-.06.13.35.35,0,0,0-.05.19c-.06,0-.17.14-.17.14a1.81,1.81,0,0,0-.17.19c-.11,0-.22.13-.22.13a1.43,1.43,0,0,0-.28.1l-.34,0c-.06,0-.22,0-.22,0a3.46,3.46,0,0,0-.4,0,.49.49,0,0,0-.28,0h-.33c-.17,0-.23,0-.23,0s0,0-.06,0-.16,0-.16,0a.16.16,0,0,0-.17,0c-.06,0-.23,0-.23,0s-.22,0-.22,0-.17.09-.17.09a.13.13,0,0,0-.17,0s-.22.18-.22.18a.29.29,0,0,0-.28.1.4.4,0,0,0-.28.13c-.06,0-.17,0-.17,0s-.22,0-.22,0-.12-.09-.17,0a.43.43,0,0,0-.28-.13.31.31,0,0,0-.28-.1s-.17-.23-.28-.18-.06-.1-.11,0a.52.52,0,0,0-.17-.09s-.23,0-.23,0-.17,0-.22,0a.16.16,0,0,0-.17,0s-.11,0-.17,0,0,0,0,0-.06,0-.23,0h-.33a.52.52,0,0,0-.29,0,3.53,3.53,0,0,0-.39,0s-.17,0-.22,0L19,33a1.43,1.43,0,0,0-.28-.1s-.11-.13-.22-.13l-.17-.19s-.11-.14-.17-.14,0-.14-.06-.19v-.13s.06-.14,0-.19.06,0,.06-.09.11-.09.06-.19a.33.33,0,0,0,0-.23.15.15,0,0,0-.06-.23s.11-.18-.17-.28a.23.23,0,0,0,0-.28s.11-.09.06-.18a.23.23,0,0,0,0-.28s0-.18,0-.23.11-.14,0-.23.11-.23,0-.28a.22.22,0,0,0,0-.27s.11-.14,0-.24.11-.23,0-.32.11-.14,0-.23.11-.14,0-.19a.29.29,0,0,0,0-.23s.11-.05,0-.14.17-.09.06-.18.17-.19,0-.23c0,0,.17-.19,0-.28,0,0,.17-.14-.06-.23a.39.39,0,0,0,0-.28s.12-.19,0-.28.12-.23,0-.32c0,0,.11-.09,0-.19a.39.39,0,0,0,0-.28.2.2,0,0,0,0-.27.22.22,0,0,0,0-.28s.06-.19,0-.24a.28.28,0,0,0,0-.23.28.28,0,0,0,0-.23s.12-.18,0-.27.06-.14,0-.19.12-.05.12-.14.11-.09.05-.18.17-.14.06-.28.05-.14-.06-.19a.34.34,0,0,0-.17-.37s.17-.14.12-.23a.18.18,0,0,0,.05-.14s.17,0,.17,0,.17,0,.22,0,.17.09.23,0a.59.59,0,0,0,.34,0,.48.48,0,0,0,.28,0,.45.45,0,0,0,.33,0s.23.09.34,0a.49.49,0,0,0,.28,0,.31.31,0,0,0,.17,0s.11.14.17,0a.26.26,0,0,0,.28,0s.16.05.22,0a.17.17,0,0,0,.11,0,.24.24,0,0,0,.23,0,2.65,2.65,0,0,0,.28-.1.19.19,0,0,0,.16-.09.24.24,0,0,0,.23,0,.23.23,0,0,0,.28,0s.22,0,.28-.05.28.1.34,0c0,.1.28.05.28.05a.23.23,0,0,0,.28,0A.22.22,0,0,0,24,22a.22.22,0,0,0,.17.09,2.65,2.65,0,0,0,.28.1.22.22,0,0,0,.22,0,.31.31,0,0,0,.17,0c0,.05.17,0,.17,0a.26.26,0,0,0,.28,0c.06.09.17,0,.17,0a.31.31,0,0,0,.17,0,.49.49,0,0,0,.28,0c.11.09.33,0,.33,0a.48.48,0,0,0,.34,0,.49.49,0,0,0,.28,0c.11,0,.34,0,.34,0s.22,0,.22,0a.49.49,0,0,0,.23,0s.16,0,.16,0a.17.17,0,0,0,.06.14c-.06.09.11.23.11.23a.36.36,0,0,0-.17.37c-.11.05-.05.19-.05.19s.05.28.05.28.06.18.06.18.11.14.11.14S28,24,28,24s0,.27,0,.27a.33.33,0,0,0,0,.23.33.33,0,0,0,0,.23c-.05.05.06.24.06.24a.2.2,0,0,0-.06.28.22.22,0,0,0,0,.27.46.46,0,0,0,0,.28c-.05.1.06.19.06.19-.17.09-.06.32-.06.32s.06.28.06.28a.31.31,0,0,0-.06.28c-.22.09,0,.23,0,.23-.22.09-.05.28-.05.28-.17,0,0,.23,0,.23s.05.18.05.18.06.14.06.14a.25.25,0,0,0,0,.23c-.11.05,0,.19,0,.19s0,.23,0,.23,0,.32,0,.32,0,.24,0,.24a.22.22,0,0,0,0,.27c-.11.05,0,.28,0,.28a.28.28,0,0,0,0,.23c-.06.05,0,.23,0,.23a.23.23,0,0,0,0,.28c-.06.09.06.18.06.18A.22.22,0,0,0,28.07,30.87Z"/><path class="cls-27" d="M22.06,36a2.59,2.59,0,0,1,.79-.23"/><path class="cls-27" d="M22.06,35.64a1.14,1.14,0,0,0-.16.23,1.77,1.77,0,0,1-1.12-.14s-.4-.14-.45-.32a1.65,1.65,0,0,0-.45-.33"/><path class="cls-27" d="M20.78,34.76a.47.47,0,0,1,.16.28s.23.51.4.6"/><path class="cls-27" d="M21.84,35.87s-.17-.28-.05-.46c0,0,.11-.18.05-.28a.42.42,0,0,1-.05-.14"/><path class="cls-27" d="M20.66,35.78a3.62,3.62,0,0,1-.95-.32s-.39-.33-.62-.28"/><path class="cls-27" d="M20.33,35.83c-.45,0-.73.6-.73.6"/><path class="cls-27" d="M19.43,36.38s.45-.6.9-.6"/><path class="cls-27" d="M19.43,36.2s.56-.47.79-.42"/><path class="cls-27" d="M19.6,36s.45-.23.62-.18"/><path class="cls-27" d="M19.43,35.92a2.14,2.14,0,0,1,.95-.14"/><path class="cls-27" d="M19.09,36s.4-.13.4-.18.56-.14.73-.05"/><path class="cls-27" d="M19.43,35.69s.73,0,.84.09"/><path class="cls-27" d="M19.88,36.48s-.11-.56.22-.65"/><path class="cls-27" d="M20.1,36.48s-.56-.38.17-.65"/><path class="cls-27" d="M20.55,36.29s-.84.19-.45-.46"/><path class="cls-27" d="M20.27,36.24s-.45-.14-.05-.37"/><path class="cls-43" d="M20.27,35.87s-.22,0-.11,0-.06-.19,0-.14.39.09.39.14l-.22,0Z"/><path class="cls-27" d="M22.12,35.69S22,36,22,36l.28,0"/><path class="cls-27" d="M22.23,35.64s0,.19-.05.23a1.25,1.25,0,0,1,.22.09"/><path class="cls-27" d="M22.46,35.59s0,.19-.12.24.17,0,.17.09"/><path class="cls-27" d="M22.62,35.59a.57.57,0,0,1-.11.19.17.17,0,0,1,.11,0"/><path class="cls-27" d="M22.79,35.64s-.05.09-.11.09.06,0,.06.05"/><path class="cls-27" d="M22,35.08s-.05.15-.11.15a1.28,1.28,0,0,1-.17-.19"/><path class="cls-27" d="M21.56,35.08s.28.24.23.33.22-.09.22-.18"/><path class="cls-27" d="M22.06,35.27s-.22.28-.27.28-.12-.28-.23-.32"/><path class="cls-27" d="M22.06,35.5s-.27.09-.27.19-.06-.28-.23-.33"/><path class="cls-27" d="M21.45,35.5a2.92,2.92,0,0,0,.34.37"/><path class="cls-27" d="M21.45,35.73a.76.76,0,0,0,.22.19"/><path class="cls-27" d="M21.56,35.87a.74.74,0,0,1-.22-.14"/><path class="cls-27" d="M21.39,35.87l-.22-.18"/><path class="cls-27" d="M21.22,35.83a1.07,1.07,0,0,1-.28-.14"/><path class="cls-27" d="M20.94,35.83l-.11-.24"/><path class="cls-27" d="M20.83,35.78a1.28,1.28,0,0,0-.11-.23"/><path class="cls-27" d="M20.72,35.69a.82.82,0,0,1-.17-.23"/><path class="cls-27" d="M20.49,35.55a.51.51,0,0,1,0-.23"/><path class="cls-27" d="M20.38,35.46a.57.57,0,0,1-.05-.23"/><path class="cls-27" d="M20.27,35.41a.76.76,0,0,0-.05-.23"/><path class="cls-27" d="M20,35.32s.17,0,.23,0"/><path class="cls-27" d="M20.05,35.41a.68.68,0,0,1,.28.05"/><path class="cls-27" d="M20.78,35l.16,0a.71.71,0,0,0,.12-.14"/><path class="cls-27" d="M21.11,35a.48.48,0,0,0-.11.23.39.39,0,0,0-.28-.14"/><path class="cls-27" d="M21.17,35.08s-.11.1-.11.19a.94.94,0,0,0-.4-.09"/><path class="cls-27" d="M20.72,35.32s.34,0,.39.09a.65.65,0,0,1,.11-.18"/><path class="cls-27" d="M21.28,35.27s-.11.19-.06.28a.77.77,0,0,0-.33-.09"/><path class="cls-14" d="M25.2,35.83s.79,0,.46.37c0,0-.34,0-.34-.19,0,0-.28,1.07.95.56a.49.49,0,0,0,.56,0,.1.1,0,0,1,.11,0s-.16,0-.16-.09a.46.46,0,0,0-.12-.32s.51.14.62-.33v-.09a.39.39,0,0,1-.34,0,.85.85,0,0,0-.5-.19.77.77,0,0,0,.45-.32s.17-.14.28-.09a1,1,0,0,1-.28-.1,1,1,0,0,0-.84.24.3.3,0,0,0,.11-.19.17.17,0,0,1,.11-.14,1.49,1.49,0,0,1-.22,0s-.45,0-.51.23c0,0-.17.23-.34.23,0,0,.4-.23.17-.55,0,0-.17-.19.06-.28a.82.82,0,0,0-.67.23s-.17.37-.23.46,0-.37-.28-.46a.31.31,0,0,1-.17,0,.18.18,0,0,1-.11.23s-.39.28-.11.51c0,0-.73-.27-.95.14a1.16,1.16,0,0,0,1.17.33A5.13,5.13,0,0,0,25.2,35.83Z"/><path class="cls-27" d="M23.92,36a2.56,2.56,0,0,0-.84-.23"/><path class="cls-27" d="M23.86,35.64s.22.19.22.23a1.77,1.77,0,0,0,1.12-.14,1.24,1.24,0,0,0,.46-.32,1.56,1.56,0,0,1,.44-.33"/><path class="cls-27" d="M25.2,34.76A.47.47,0,0,0,25,35s-.23.51-.4.6"/><path class="cls-27" d="M24.14,35.87a.92.92,0,0,0,.06-.46s-.12-.18-.06-.28A.38.38,0,0,0,24.2,35"/><path class="cls-27" d="M25.32,35.78a3,3,0,0,0,.89-.32s.45-.33.62-.28"/><path class="cls-27" d="M25.66,35.83c.44,0,.72.6.72.6"/><path class="cls-27" d="M26.55,36.38s-.45-.6-.89-.6"/><path class="cls-27" d="M26.55,36.2s-.56-.47-.84-.42"/><path class="cls-27" d="M26.5,35.92a2,2,0,0,0-1-.14"/><path class="cls-27" d="M26.89,36a3.21,3.21,0,0,1-.45-.18s-.51-.14-.67-.05"/><path class="cls-27" d="M26.5,35.69s-.68,0-.84.09"/><path class="cls-27" d="M26.05,36.48s.16-.56-.23-.65"/><path class="cls-27" d="M25.88,36.48s.56-.38-.17-.65"/><path class="cls-27" d="M25.43,36.29s.84.19.39-.46"/><path class="cls-27" d="M25.71,36.24s.39-.14,0-.37"/><path class="cls-43" d="M25.66,35.87s.22,0,.16,0,.06-.19,0-.14a2.45,2.45,0,0,0-.45.14l.29,0Z"/><path class="cls-27" d="M23.86,35.69s.06.27.11.27l-.22,0"/><path class="cls-27" d="M23.75,35.64s0,.19.05.23-.22.05-.22.09"/><path class="cls-27" d="M23.52,35.59s0,.19.12.24a.79.79,0,0,0-.23.09"/><path class="cls-27" d="M23.3,35.59a.84.84,0,0,0,.11.19,0,0,0,0,0-.05,0"/><path class="cls-27" d="M23.19,35.64s0,.09.11.09a.17.17,0,0,0-.11.05"/><path class="cls-27" d="M24,35.08l0,.15a.89.89,0,0,0,.23-.19"/><path class="cls-27" d="M24.42,35.08s-.34.24-.22.33-.23-.09-.23-.18"/><path class="cls-27" d="M23.92,35.27s.16.28.28.28.11-.28.22-.32"/><path class="cls-27" d="M23.86,35.5s.28.09.34.19.05-.28.22-.33"/><path class="cls-27" d="M24.53,35.5a3.53,3.53,0,0,1-.33.37"/><path class="cls-27" d="M24.53,35.73a1.75,1.75,0,0,1-.28.19"/><path class="cls-27" d="M24.42,35.87a.74.74,0,0,0,.22-.14"/><path class="cls-27" d="M24.59,35.87l.22-.18"/><path class="cls-27" d="M24.76,35.83a1.13,1.13,0,0,0,.22-.14"/><path class="cls-27" d="M25,35.83a.78.78,0,0,0,.17-.24"/><path class="cls-27" d="M25.09,35.78l.17-.23"/><path class="cls-27" d="M25.26,35.69a2,2,0,0,1,.17-.23"/><path class="cls-27" d="M25.49,35.55a.51.51,0,0,0,.05-.23"/><path class="cls-27" d="M25.6,35.46a.61.61,0,0,1,.06-.23"/><path class="cls-27" d="M25.66,35.41a.51.51,0,0,0,.05-.23"/><path class="cls-27" d="M25.93,35.32s-.11,0-.16,0"/><path class="cls-27" d="M25.93,35.41s-.22,0-.27.05"/><path class="cls-27" d="M25.2,35,25,35a.53.53,0,0,1-.11-.14"/><path class="cls-27" d="M24.87,35a.48.48,0,0,1,.11.23.29.29,0,0,1,.28-.14"/><path class="cls-27" d="M24.81,35.08s.12.1.06.19a1.27,1.27,0,0,1,.39-.09"/><path class="cls-27" d="M25.26,35.32s-.33,0-.39.09a.65.65,0,0,0-.11-.18"/><path class="cls-27" d="M24.7,35.27s.11.19.06.28a.8.8,0,0,1,.28-.09"/><path class="cls-16" d="M23,37h.22c-.16-.13.12-.83.12-.83-.17,0-.34-.32-.34-.32h0a.78.78,0,0,1-.4.32s.34.7.17.83Z"/><path class="cls-16" d="M23.19,37.26c0,.05-.06.09-.11.09s-.12,0-.12-.09.06-.09.12-.09S23.19,37.22,23.19,37.26Z"/><path class="cls-16" d="M23.36,37.45h-.57s.29.32.29.41S23.19,37.54,23.36,37.45Z"/><path class="cls-26" d="M23.47,38.19a.13.13,0,0,1-.11.14h-.51c-.11,0-.17,0-.17-.14h0s.06-.09.17-.09h.51c.05,0,.11,0,.11.09Z"/><path class="cls-27" d="M21.34,36.57s.39.28.11.41"/><path class="cls-27" d="M21.5,36.75s-.28-.09-.22.14c0,0,0,.19.28.14,0,0,.62-.14.67-.05"/><path class="cls-27" d="M22,36.52a.28.28,0,0,1,.17.42"/><path class="cls-27" d="M21.67,36.57s.17.14,0,.41"/><path class="cls-27" d="M24.81,36.57s-.39.28,0,.41"/><path class="cls-27" d="M24.64,36.75s.29-.09.29.14c0,0-.06.19-.34.14,0,0-.62-.14-.62-.05"/><path class="cls-27" d="M24.14,36.52a.3.3,0,0,0-.17.42"/><path class="cls-27" d="M24.53,36.57a.28.28,0,0,0-.05.41"/><path class="cls-27" d="M23,38.33s-.45.18-.45.5"/><path class="cls-27" d="M23.08,38.33s-.34.27-.34.55"/><path class="cls-27" d="M23.08,38.42v.69"/><path class="cls-27" d="M23.19,38.47s.17,0,.17.27"/><path class="cls-27" d="M23.3,38.42a.7.7,0,0,1,.34.41"/><path class="cls-26" d="M14.77,24.11s-.16,1.12-1,.42A.69.69,0,0,1,14,23.7s1.57-1.07,1.68-1.9c0,0,.39-1.39-.33-1.9a1,1,0,0,0-1.24-.09s-.61.93.56.93c0,0-.89-.61-.17-1a.88.88,0,0,1,1,.75s.22,1.29-.34,1.8c0,0-.67.88-1.06,1,0,0-.85.55-.56,1.15a.72.72,0,0,0,1.28.19S15,24.3,14.77,24.11Z"/><path class="cls-16" d="M14.77,24.11s-.11-.6-.84-.27a.33.33,0,0,0,.06.6s.45.18.62-.14a.18.18,0,0,0-.17-.23s-.23,0-.17.14a.2.2,0,0,1-.17,0s-.17-.28.11-.28C14.21,23.93,14.44,23.84,14.77,24.11Z"/><path class="cls-26" d="M31.21,27.73V28a1.14,1.14,0,0,0-.73,1.12,2.93,2.93,0,0,0,.28,1.57s.84,2.13-.06,2.22c0,0-.95.18-.78-.51,0,0,0-.79.72-.37,0,0,.06.18-.16.18a.22.22,0,0,1-.17-.09l-.06.56s.56.18.51-.51a8.81,8.81,0,0,0-.34-1.53S29.52,28.42,31.21,27.73Z"/><path class="cls-23" d="M31.09,32.31s-.72,1-1.17-.05"/><path class="cls-16" d="M16.12,26.25c0,.27-.11.5-.28.5s-.22-.23-.22-.5.11-.56.22-.56S16.12,25.92,16.12,26.25Z"/><path class="cls-16" d="M29.75,26.25c0,.27.11.5.22.5s.28-.23.28-.5-.11-.56-.28-.56S29.75,25.92,29.75,26.25Z"/><path class="cls-23" d="M13.82,24.58s-.5,0-.28-.65"/><path class="cls-23" d="M15.62,25.41s.39-.37.61,0"/><path class="cls-23" d="M15.73,25.13s.28-.18.45,0"/><path class="cls-23" d="M15.84,24.85a.24.24,0,0,1,.22,0"/><path class="cls-23" d="M15.56,27.12s.39.37.62,0"/><path class="cls-23" d="M15.67,27.4s.28.19.45.05"/><path class="cls-23" d="M15.78,27.68s.12.05.17-.05"/><path class="cls-23" d="M32.05,24.58s.45,0,.28-.65"/><path class="cls-23" d="M30.19,25.41s-.33-.37-.55,0"/><path class="cls-23" d="M30.14,25.13s-.28-.18-.45,0"/><path class="cls-23" d="M30,24.85a.26.26,0,0,0-.23,0"/><path class="cls-23" d="M30.25,27.12s-.33.37-.56,0"/><path class="cls-23" d="M30.19,27.4s-.27.19-.44.05"/><path class="cls-23" d="M30.09,27.68a.23.23,0,0,1-.23-.05"/><path class="cls-23" d="M16.29,20.46s.5.14.56-.14"/><path class="cls-23" d="M16.51,20.6s.17.14.34-.09"/><path class="cls-23" d="M16.74,20.74a.24.24,0,0,0,.22,0"/><path class="cls-23" d="M29.69,20.46s-.5.14-.61-.09"/><path class="cls-23" d="M29.47,20.6s-.17.14-.39-.09"/><path class="cls-23" d="M29.24,20.74s-.11.09-.22,0"/><path class="cls-23" d="M22.68,21.71a1.46,1.46,0,0,0-.06.23"/><path class="cls-23" d="M22.46,21.75a2.35,2.35,0,0,1-.17.24"/><path class="cls-23" d="M22.18,21.8a1.84,1.84,0,0,0-.06.23"/><path class="cls-23" d="M22,21.89s-.11.14-.05.23"/><path class="cls-23" d="M21.67,21.94s0,.18-.05.23"/><path class="cls-23" d="M21.45,21.89s.05.33-.06.37"/><path class="cls-23" d="M21.22,21.89s.12.33,0,.37"/><path class="cls-23" d="M21,21.94s.11.23,0,.37"/><path class="cls-23" d="M20.83,21.94s.06.32,0,.37"/><path class="cls-23" d="M20.61,22s.05.19,0,.23"/><path class="cls-23" d="M20.49,22.08a1.7,1.7,0,0,0,0,.23"/><path class="cls-23" d="M20.27,22.08a1,1,0,0,0-.11.23"/><path class="cls-23" d="M20,22.08s-.11.18-.17.18"/><path class="cls-23" d="M19.71,22.08s-.17.18-.22.18"/><path class="cls-23" d="M19.37,22s-.11.19-.16.19"/><path class="cls-23" d="M19.09,22a1.42,1.42,0,0,1-.17.23"/><path class="cls-23" d="M18.81,22s-.11.18-.17.18"/><path class="cls-23" d="M18.53,21.94s0,.23-.11.28"/><path class="cls-23" d="M18.25,22s.06.23,0,.27"/><path class="cls-23" d="M18,22.17s.23.14.23.19"/><path class="cls-23" d="M17.92,22.36s.16.18.22.23"/><path class="cls-23" d="M17.86,22.59s.22,0,.22,0"/><path class="cls-23" d="M17.8,22.73s.45.18.45.23"/><path class="cls-23" d="M17.8,23a4.94,4.94,0,0,1,.51.23"/><line class="cls-31" x1="17.75" y1="23.19" x2="18.25" y2="23.42"/><path class="cls-23" d="M17.75,23.42a2.4,2.4,0,0,1,.45.23"/><path class="cls-23" d="M17.8,23.65a1.86,1.86,0,0,0,.28.09"/><path class="cls-23" d="M17.8,23.79s.23.09.23.19"/><path class="cls-23" d="M17.75,24.07s.33.09.33.14"/><path class="cls-23" d="M17.8,24.3s.28.14.28.18"/><path class="cls-23" d="M17.8,24.53s.23.09.28.18"/><path class="cls-23" d="M17.8,24.81a1.43,1.43,0,0,1,.28.14"/><path class="cls-23" d="M17.75,25.09a1.59,1.59,0,0,1,.33.14"/><path class="cls-23" d="M17.75,25.32s.28.14.28.18"/><path class="cls-23" d="M17.8,25.6s.28.13.28.18"/><path class="cls-23" d="M17.75,25.88A1,1,0,0,1,18,26"/><line class="cls-31" x1="17.75" y1="26.11" x2="18.08" y2="26.29"/><path class="cls-23" d="M17.8,26.38s.23.14.23.19"/><line class="cls-31" x1="17.8" y1="26.66" x2="18.03" y2="26.8"/><path class="cls-23" d="M17.75,26.8l.33.05"/><path class="cls-23" d="M17.69,26.94a2.45,2.45,0,0,1,.45.14"/><path class="cls-23" d="M17.64,27.12s.5.14.5.24"/><path class="cls-23" d="M17.64,27.36s.5.18.5.23"/><path class="cls-23" d="M17.64,27.63s.44.1.44.14"/><line class="cls-31" x1="17.69" y1="27.86" x2="18.03" y2="27.91"/><path class="cls-23" d="M17.75,28s.28.1.28.14"/><path class="cls-23" d="M17.8,28.19s.23.09.23.14"/><path class="cls-23" d="M17.75,28.42s.28.09.28.14"/><path class="cls-23" d="M17.75,28.65s.28.19.28.23"/><line class="cls-31" x1="17.75" y1="28.93" x2="18.03" y2="29.12"/><path class="cls-23" d="M17.75,29.21s.28.09.28.18"/><path class="cls-23" d="M17.75,29.49s.28.13.28.18"/><path class="cls-23" d="M17.75,29.67s.28.19.28.23"/><path class="cls-23" d="M17.69,30s.34.14.34.19"/><path class="cls-23" d="M17.69,30.23a3,3,0,0,1,.34.18"/><line class="cls-31" x1="17.69" y1="30.46" x2="17.97" y2="30.59"/><path class="cls-23" d="M17.75,30.69s.22.14.22.18a1,1,0,0,1-.28-.09"/><path class="cls-23" d="M17.64,31a2.51,2.51,0,0,1,.5.18"/><line class="cls-31" x1="17.64" y1="31.2" x2="18.2" y2="31.38"/><path class="cls-23" d="M17.64,31.38s.56.14.56.23"/><path class="cls-23" d="M17.64,31.57s.44.18.44.23"/><line class="cls-31" x1="17.69" y1="31.8" x2="18.03" y2="31.85"/><path class="cls-23" d="M17.75,31.94s.28.09.28.14"/><path class="cls-23" d="M17.8,32.17s.28,0,.28,0"/><path class="cls-23" d="M17.86,32.4s.28,0,.28,0"/><path class="cls-23" d="M18,32.59l.28-.05Z"/><path class="cls-23" d="M18.14,32.77a.82.82,0,0,1,.39,0"/><path class="cls-23" d="M18.36,33s.23-.14.34-.1"/><path class="cls-23" d="M18.64,33.05l.28-.09"/><path class="cls-23" d="M19,33.19a.59.59,0,0,1,.28-.19"/><path class="cls-23" d="M19.32,33.23s.17-.18.22-.18"/><path class="cls-23" d="M19.65,33.23l.23-.18"/><path class="cls-23" d="M20,33.23l.23-.18"/><path class="cls-23" d="M20.27,33.28a1,1,0,0,0,.28-.23"/><path class="cls-23" d="M20.61,33.28a.88.88,0,0,0,.17-.19"/><path class="cls-23" d="M21,33.05s-.06.23-.17.23"/><path class="cls-23" d="M21.06,33.33a.41.41,0,0,1,.11-.28"/><path class="cls-23" d="M21.34,33.05s0,.32-.12.32"/><path class="cls-23" d="M21.56,33.05s-.11.37-.17.37"/><path class="cls-23" d="M21.56,33.42s.28-.14.23-.28"/><path class="cls-23" d="M21.9,33.19s-.06.28-.11.28"/><path class="cls-23" d="M21.9,33.47s.22-.14.16-.24"/><path class="cls-23" d="M22.18,33.37a2.14,2.14,0,0,1,.05.23"/><path class="cls-23" d="M22.46,33.47a1.86,1.86,0,0,1,.11.27"/><path class="cls-23" d="M22.74,33.6a1.92,1.92,0,0,1,.05.24"/><path class="cls-23" d="M23.36,21.71a1.7,1.7,0,0,1,.05.23"/><path class="cls-23" d="M23.58,21.75a1.39,1.39,0,0,0,.17.24"/><path class="cls-23" d="M23.86,21.8a1.84,1.84,0,0,1,.06.23"/><path class="cls-23" d="M24.08,21.89s.12.14.06.23"/><path class="cls-23" d="M24.36,21.94s0,.18.06.23"/><path class="cls-23" d="M24.59,21.89s-.06.33.05.37"/><path class="cls-23" d="M24.81,21.89s-.11.33,0,.37"/><path class="cls-23" d="M25,21.94s-.11.23,0,.37"/><path class="cls-23" d="M25.26,21.94s-.11.32,0,.37"/><path class="cls-23" d="M25.43,22s-.06.19,0,.23"/><path class="cls-23" d="M25.54,22.08a1.46,1.46,0,0,1,.06.23"/><path class="cls-23" d="M25.77,22.08a1,1,0,0,1,.11.23"/><path class="cls-23" d="M26.05,22.08s.11.18.16.18"/><path class="cls-23" d="M26.38,22.08s.12.18.17.18"/><path class="cls-23" d="M26.66,22s.12.19.17.19"/><path class="cls-23" d="M26.94,22a2.51,2.51,0,0,0,.17.23"/><path class="cls-23" d="M27.22,22s.12.18.17.18"/><path class="cls-23" d="M27.5,21.94s0,.23.12.28"/><path class="cls-23" d="M27.78,22s-.05.23,0,.27"/><path class="cls-23" d="M28.07,22.17s-.23.14-.23.19"/><path class="cls-23" d="M28.12,22.36s-.17.18-.17.23"/><path class="cls-23" d="M28.18,22.59s-.23,0-.23,0"/><path class="cls-23" d="M28.24,22.73s-.46.18-.46.23"/><path class="cls-23" d="M28.29,23a4.46,4.46,0,0,0-.56.23"/><line class="cls-31" x1="28.29" y1="23.19" x2="27.78" y2="23.42"/><path class="cls-23" d="M28.29,23.42a2.4,2.4,0,0,0-.45.23"/><path class="cls-23" d="M28.24,23.65a1.7,1.7,0,0,1-.29.09"/><path class="cls-23" d="M28.24,23.79S28,23.88,28,24"/><path class="cls-23" d="M28.29,24.07s-.34.09-.34.14"/><path class="cls-23" d="M28.24,24.3s-.29.14-.29.18"/><path class="cls-23" d="M28.24,24.53a.84.84,0,0,0-.29.18"/><path class="cls-23" d="M28.24,24.81S28,24.9,28,25"/><path class="cls-23" d="M28.29,25.09a1.89,1.89,0,0,0-.34.14"/><path class="cls-23" d="M28.29,25.32s-.28.14-.28.18"/><path class="cls-23" d="M28.29,25.6s-.34.13-.34.18"/><path class="cls-23" d="M28.29,25.88A1,1,0,0,0,28,26"/><line class="cls-31" x1="28.29" y1="26.11" x2="27.95" y2="26.29"/><path class="cls-23" d="M28.29,26.38s-.28.14-.28.19"/><line class="cls-31" x1="28.24" y1="26.66" x2="28.01" y2="26.8"/><path class="cls-23" d="M28.29,26.8l-.34.05"/><path class="cls-23" d="M28.34,26.94S28,27,28,27.08"/><path class="cls-23" d="M28.4,27.12s-.5.14-.5.24"/><path class="cls-23" d="M28.4,27.36s-.5.18-.5.23"/><path class="cls-23" d="M28.4,27.63a1.94,1.94,0,0,0-.45.14"/><line class="cls-31" x1="28.34" y1="27.86" x2="28.01" y2="27.91"/><path class="cls-23" d="M28.29,28s-.28.1-.28.14"/><path class="cls-23" d="M28.29,28.19s-.28.09-.28.14"/><path class="cls-23" d="M28.29,28.42s-.28.09-.28.14"/><path class="cls-23" d="M28.29,28.65s-.28.19-.28.23"/><line class="cls-31" x1="28.29" y1="28.93" x2="28.01" y2="29.12"/><path class="cls-23" d="M28.29,29.21s-.28.09-.28.18"/><path class="cls-23" d="M28.29,29.49s-.22.13-.28.18"/><path class="cls-23" d="M28.29,29.67s-.28.19-.28.23"/><path class="cls-23" d="M28.34,30s-.33.14-.33.19"/><path class="cls-23" d="M28.34,30.23a3,3,0,0,0-.33.18"/><line class="cls-31" x1="28.34" y1="30.46" x2="28.07" y2="30.59"/><path class="cls-23" d="M28.29,30.69s-.22.14-.22.18a.84.84,0,0,0,.27-.09"/><path class="cls-23" d="M28.4,31a2.51,2.51,0,0,0-.5.18"/><line class="cls-31" x1="28.4" y1="31.2" x2="27.84" y2="31.38"/><path class="cls-23" d="M28.4,31.38s-.56.14-.56.23"/><path class="cls-23" d="M28.4,31.57s-.45.18-.45.23"/><line class="cls-31" x1="28.34" y1="31.8" x2="28.01" y2="31.85"/><path class="cls-23" d="M28.29,31.94S28,32,28,32.08"/><path class="cls-23" d="M28.24,32.17s-.29,0-.29,0"/><path class="cls-23" d="M28.18,32.4s-.28,0-.28,0"/><path class="cls-23" d="M28.07,32.59l-.29-.05Z"/><path class="cls-23" d="M27.9,32.77a.85.85,0,0,0-.4,0"/><path class="cls-23" d="M27.67,33s-.22-.14-.33-.1"/><path class="cls-23" d="M27.39,33.05,27.11,33"/><path class="cls-23" d="M27.06,33.19a.59.59,0,0,0-.28-.19"/><path class="cls-23" d="M26.72,33.23s-.17-.18-.22-.18"/><path class="cls-23" d="M26.38,33.23l-.22-.18"/><path class="cls-23" d="M26.05,33.23l-.23-.18"/><path class="cls-23" d="M25.77,33.28a1,1,0,0,1-.28-.23"/><path class="cls-23" d="M25.43,33.28a.88.88,0,0,1-.17-.19"/><path class="cls-23" d="M25,33.05s.05.23.16.23"/><path class="cls-23" d="M25,33.33a.41.41,0,0,0-.11-.28"/><path class="cls-23" d="M24.7,33.05s0,.32.11.32"/><path class="cls-23" d="M24.48,33.05s.11.37.16.37"/><path class="cls-23" d="M24.48,33.42s-.28-.14-.23-.28"/><path class="cls-23" d="M24.14,33.19s.06.28.11.28"/><path class="cls-23" d="M24.14,33.47s-.22-.14-.17-.24"/><path class="cls-23" d="M23.86,33.37a1.84,1.84,0,0,0-.06.23"/><path class="cls-23" d="M23.58,33.47a1.86,1.86,0,0,0-.11.27"/><path class="cls-23" d="M23.3,33.6a1.65,1.65,0,0,0-.06.24"/><path class="cls-23" d="M22.85,21.89a.65.65,0,0,1,.11-.18"/><path class="cls-23" d="M23.13,21.94a1.37,1.37,0,0,0,.17-.28"/><path class="cls-23" d="M22.91,33.65s.22.23.22.28"/><path class="cls-44" d="M22.29,24.3s-.11-.14-.17-.05-.11.05-.11-.09.17-.32-.22-.28a.56.56,0,0,0-.23-.32v-.14l.11-.05s0,0-.05,0l.05,0a.08.08,0,0,0-.11,0s-.06-.09-.22-.05c0,0-.12.1-.17.1s.17,0,.17.09v.19s-.06.18-.17.09-.06-.37-.28-.42c0,0-.11-.09-.11-.14v0a.28.28,0,0,0-.06.27s-.17.05.06.19c0,0-.34,0,0,.18a.35.35,0,0,1-.17,0,1,1,0,0,0-.73,0,.89.89,0,0,1-.45.1s0,.14.11.14,0,.09.23,0c0,0-.06.09.16,0,0,0-.11.19.12.09,0,0-.06.1.28,0,0,0,0,.14.11.09s0,0,0,0a.09.09,0,0,0,.12,0s.22.05.28,0,.11,0,0,.09-.11.1-.17.1,0,0,.06,0,.11,0-.06.09h-.11v.05h.05l-.11.14h.06l.11-.09.06,0v0s-.06-.1.11-.14c0,0,.11,0,.11-.05s.22-.28.34-.09c0,0,.05.18-.28.37,0,0,.16,0,.11.09a.08.08,0,0,0,.11,0s0-.05.06,0,.11,0,.11-.05l.05,0s.12.09.12,0a.12.12,0,0,0-.06-.09s0-.33.17-.42c0,0,.11-.09.11.09a.18.18,0,0,0,.22.1s.17-.05.17,0Z"/><path class="cls-45" d="M21.79,23.88a1.74,1.74,0,0,1-.12.33"/><path class="cls-45" d="M20.05,23.79s.84,0,.95.19"/><path class="cls-45" d="M20.83,23.74s.28.1.39.05"/><path class="cls-45" d="M21.5,23.33h0Z"/><path class="cls-44" d="M23.58,24.3s.11-.14.17-.05.11.05.11-.09-.17-.32.22-.28a.56.56,0,0,1,.23-.32v-.14l-.11-.05s0,0,.05,0l-.05,0a.08.08,0,0,1,.11,0s.05-.09.22-.05c0,0,.11.1.17.1s-.17,0-.17.09v.19s.06.18.17.09.06-.37.28-.42c0,0,.11-.09.11-.14v0a.3.3,0,0,1,.06.27s.17.05-.06.19c0,0,.34,0,0,.18a.38.38,0,0,0,.17,0,1,1,0,0,1,.73,0,.89.89,0,0,0,.45.1s0,.14-.11.14,0,.09-.23,0c0,0,.06.09-.17,0,0,0,.12.19-.11.09,0,0,.06.1-.28,0,0,0,0,.14-.11.09s-.06,0-.06,0-.11.05-.11,0-.22.05-.28,0-.11,0,0,.09.11.1.17.1,0,0-.06,0-.11,0,.06.09h.11v.05H25.2l.12.14h-.06l-.11-.09-.06,0v0s.06-.1-.11-.14c0,0-.11,0-.11-.05s-.23-.28-.34-.09c0,0-.05.18.28.37,0,0-.17,0-.11.09a.08.08,0,0,1-.11,0s0-.05-.06,0-.11,0-.11-.05l-.06,0s-.11.09-.11,0a.12.12,0,0,1,.06-.09s0-.33-.17-.42c0,0-.11-.09-.11.09a.19.19,0,0,1-.23.1s-.16-.05-.16,0Z"/><path class="cls-45" d="M24.08,23.88a1.74,1.74,0,0,0,.12.33"/><path class="cls-45" d="M25.82,23.79s-.84,0-.95.19"/><path class="cls-45" d="M25,23.74a.82.82,0,0,1-.4.05"/><path class="cls-45" d="M24.36,23.33h0Z"/><rect class="cls-46" x="21.95" y="27.45" width="2.07" height="2.18"/><path class="cls-47" d="M21.34,26.38v3h.95v-1.2s-.06-.56.67-.56c0,0,.68,0,.68.51v1.2h.84v-3Z"/><polygon class="cls-48" points="23.36 23.42 23.13 23.42 23.13 23.19 22.91 23.19 22.91 23.42 22.62 23.42 22.62 23.61 22.91 23.61 22.91 23.98 23.13 23.98 23.13 23.61 23.36 23.61 23.36 23.42"/><path class="cls-48" d="M23,25.36a.1.1,0,0,1,.11.1v.65h.51V25c.11-.05,0-.14,0-.14s0-.14,0-.14.11-.19.11-.19l.05-.18-.22-.05s-.11-.09-.11-.09c-.17,0-.11-.09-.11-.09s-.34-.19-.34-.19h0s-.34.05-.34.19.06.09-.11.09c0,0-.11.05-.11.09l-.23.05v.18s.17.05.17.19a.1.1,0,0,0-.06.14.1.1,0,0,0,.06.14v1.16h.51v-.65a.1.1,0,0,1,.11-.1Z"/><path class="cls-49" d="M22.4,24.67h0Z"/><path class="cls-49" d="M23.64,24.81h0Z"/><path class="cls-49" d="M22.4,25h0Z"/><path class="cls-48" d="M22.46,24.25h0Z"/><rect class="cls-50" x="22.62" y="24.3" width="0.17" height="0.19"/><rect class="cls-50" x="23.19" y="24.3" width="0.22" height="0.19"/><path class="cls-49" d="M22.4,25.09h0Z"/><path class="cls-49" d="M22.4,25.46h0Z"/><path class="cls-49" d="M22.4,25.18h0Z"/><path class="cls-49" d="M22.4,25.32h0Z"/><path class="cls-49" d="M22.4,25.64h0Z"/><path class="cls-48" d="M23.13,25.46h0Z"/><path class="cls-48" d="M23.13,25.64h0Z"/><path class="cls-49" d="M22.74,25v0Z"/><path class="cls-49" d="M23.13,25v0Z"/><path class="cls-49" d="M23.47,25v0Z"/><path class="cls-49" d="M23,25.09v0Z"/><path class="cls-49" d="M22.68,25.18v0Z"/><path class="cls-49" d="M23.19,25.18v0Z"/><path class="cls-51" d="M22.79,25.32v0Z"/><path class="cls-51" d="M23.47,25.32v0Z"/><path class="cls-47" d="M23.36,25.46v0Z"/><path class="cls-47" d="M22.57,25.46v0Z"/><path class="cls-52" d="M22.74,25.64v0Z"/><path class="cls-52" d="M23.24,25.64v0Z"/><path class="cls-53" d="M22.79,25.13c0,.05,0,.1-.11.1s-.06-.05-.06-.1,0-.09.06-.09S22.79,25.09,22.79,25.13Z"/><path class="cls-53" d="M23.47,25.13a.12.12,0,0,1-.11.1.12.12,0,0,1-.12-.1s.06-.09.12-.09S23.47,25.09,23.47,25.13Z"/><polygon class="cls-47" points="22.23 25.32 21.22 25.32 21.22 25.09 21.5 25.09 21.5 25.18 21.62 25.18 21.62 25.09 21.9 25.09 21.9 25.18 22.01 25.18 22.01 25.04 22.23 25.04 22.23 25.32"/><rect class="cls-46" x="21.28" y="25.32" width="0.9" height="0.05"/><path class="cls-47" d="M21.62,25.5c0,.05-.06.1-.06.1a.11.11,0,0,1-.11-.1s.05,0,.11,0S21.62,25.46,21.62,25.5Z"/><path class="cls-47" d="M22,25.5c0,.05,0,.1-.06.1s-.05-.05-.05-.1,0,0,.05,0S22,25.46,22,25.5Z"/><polygon class="cls-47" points="21.34 25.27 21.34 26.01 21.45 26.11 21.95 26.11 22.12 26.01 22.12 25.92 22.12 25.23 21.34 25.27"/><path class="cls-47" d="M21.34,25.5h0Z"/><path class="cls-47" d="M21.34,25.6h0Z"/><path class="cls-47" d="M21.34,25.73h0Z"/><path class="cls-47" d="M21.34,25.88h0Z"/><path class="cls-47" d="M21.79,25.41v0Z"/><path class="cls-47" d="M21.67,25.5v0Z"/><path class="cls-47" d="M21.62,25.64v0Z"/><path class="cls-47" d="M21.84,25.64v0Z"/><path class="cls-47" d="M21.73,25.73v0Z"/><polygon class="cls-47" points="24.87 25.32 23.86 25.32 23.86 25.09 24.14 25.09 24.14 25.18 24.25 25.18 24.25 25.09 24.53 25.09 24.53 25.18 24.64 25.18 24.64 25.04 24.87 25.04 24.87 25.32"/><rect class="cls-46" x="23.92" y="25.32" width="0.95" height="0.05"/><path class="cls-47" d="M24.25,25.5c0,.05,0,.1-.05.1a.12.12,0,0,1-.12-.1s.06,0,.12,0S24.25,25.46,24.25,25.5Z"/><path class="cls-47" d="M24.7,25.5a.12.12,0,0,1-.11.1c-.06,0-.06-.05-.06-.1s0,0,.06,0S24.7,25.46,24.7,25.5Z"/><polygon class="cls-47" points="23.97 25.27 23.97 26.01 24.14 26.11 24.59 26.11 24.76 26.01 24.81 25.92 24.81 25.23 23.97 25.27"/><path class="cls-47" d="M24,25.5h0Z"/><path class="cls-47" d="M24,25.6h0Z"/><path class="cls-47" d="M24,25.73h0Z"/><path class="cls-47" d="M24,25.88h0Z"/><path class="cls-47" d="M24.42,25.41v0Z"/><path class="cls-47" d="M24.36,25.5v0Z"/><path class="cls-47" d="M24.25,25.64v0Z"/><path class="cls-47" d="M24.48,25.64v0Z"/><path class="cls-47" d="M24.36,25.73v0Z"/><polygon class="cls-47" points="24.59 26.52 21.34 26.52 21 26.15 24.93 26.15 24.59 26.52"/><rect class="cls-46" x="21.34" y="26.48" width="3.25" height="0.19"/><polygon class="cls-47" points="24.93 26.2 21 26.2 21 25.78 21.5 25.78 21.5 26.01 21.9 26.01 21.9 25.78 22.34 25.78 22.34 26.01 22.74 26.01 22.74 25.78 23.3 25.78 23.3 26.01 23.75 26.01 23.75 25.73 24.14 25.73 24.14 26.01 24.53 26.01 24.53 25.78 24.93 25.78 24.93 26.2"/><path class="cls-47" d="M21.39,26.85h0Z"/><path class="cls-47" d="M21.39,27.26h0Z"/><path class="cls-47" d="M21.39,27.49h0Z"/><path class="cls-47" d="M21.39,27.68h0Z"/><path class="cls-47" d="M21.39,27.91h0Z"/><path class="cls-47" d="M21.39,28.14h0Z"/><path class="cls-47" d="M21.39,28.33h0Z"/><path class="cls-47" d="M21.39,28.56h0Z"/><path class="cls-47" d="M21.39,28.79h0Z"/><path class="cls-47" d="M21.39,29h0Z"/><path class="cls-47" d="M21.39,29.21h0Z"/><path class="cls-47" d="M24.42,27.68h0Z"/><path class="cls-47" d="M24.48,27.91h0Z"/><path class="cls-47" d="M24.48,28.14h0Z"/><path class="cls-47" d="M24.48,28.33h0Z"/><path class="cls-47" d="M24.48,28.56h0Z"/><path class="cls-47" d="M24.48,28.79h0Z"/><path class="cls-47" d="M24.48,29h0Z"/><path class="cls-47" d="M24.48,29.21h0Z"/><path class="cls-53" d="M22.51,29.39V28.14s0-.28.45-.28c0,0,.4,0,.4.28v1.2Z"/><path class="cls-47" d="M22.74,27.63l.05.23Z"/><path class="cls-47" d="M23.24,27.68l-.11.18Z"/><path class="cls-47" d="M23.58,27.82l-.22.18Z"/><path class="cls-47" d="M23.64,28.14l-.23.05Z"/><path class="cls-47" d="M23.64,28.42h0Z"/><path class="cls-47" d="M23.64,28.65h0Z"/><path class="cls-47" d="M23.64,28.93h0Z"/><path class="cls-47" d="M23.64,29.21h0Z"/><path class="cls-47" d="M22.29,29.16l.22.05Z"/><path class="cls-47" d="M22.29,28.93h0Z"/><path class="cls-47" d="M22.29,28.65h0Z"/><path class="cls-47" d="M22.29,28.42h0Z"/><path class="cls-47" d="M22.29,28.05l.22.09Z"/><path class="cls-47" d="M22.4,27.82l.22.14Z"/><path class="cls-47" d="M22.23,26.66v0Z"/><path class="cls-47" d="M22.91,26.66v0Z"/><path class="cls-47" d="M23.64,26.66v0Z"/><path class="cls-54" d="M22,27.26v0Z"/><path class="cls-54" d="M22.57,27.26v0Z"/><path class="cls-54" d="M23.24,27.26v0Z"/><path class="cls-54" d="M23.86,27.26v0Z"/><path class="cls-54" d="M24.31,27.49v0Z"/><path class="cls-54" d="M23.69,27.49v0Z"/><path class="cls-55" d="M23,27.49v0Z"/><path class="cls-54" d="M22.23,27.49v0Z"/><path class="cls-54" d="M22,27.73v0Z"/><path class="cls-54" d="M21.56,27.91v0Z"/><path class="cls-54" d="M22.18,27.91v0Z"/><path class="cls-54" d="M21.9,28.14v0Z"/><path class="cls-56" d="M21.62,28.33v0Z"/><path class="cls-57" d="M21.9,28.56v0Z"/><path class="cls-57" d="M21.62,28.79v0Z"/><path class="cls-57" d="M22,29v0Z"/><path class="cls-57" d="M24.31,28.79v0Z"/><path class="cls-57" d="M24,28.56v0Z"/><path class="cls-57" d="M24.31,28.33v0Z"/><path class="cls-57" d="M24,28.14v0Z"/><path class="cls-57" d="M24.31,27.91v0Z"/><path class="cls-57" d="M24,27.68v0Z"/><path class="cls-57" d="M24,29v0Z"/><path class="cls-54" d="M21.5,27.49v0Z"/><path class="cls-57" d="M21.45,29.34s-.28,0-.28.24c0,0-.11,0-.06.14l-.33.18v.23h4.31V29.9l-.39-.23s-.06-.09-.11-.09.05-.28-.17-.28Z"/><path class="cls-57" d="M21.17,29.58h0Z"/><path class="cls-57" d="M21.11,29.72h0Z"/><path class="cls-57" d="M20.78,29.9h0Z"/><path class="cls-47" d="M21.39,27h0Z"/><path class="cls-47" d="M22.57,26.85v0Z"/><path class="cls-47" d="M23.24,26.85v0Z"/><path class="cls-54" d="M22.91,27.08v0Z"/><path class="cls-47" d="M22.34,27a.35.35,0,0,1-.39.33.33.33,0,1,1,0-.65A.35.35,0,0,1,22.34,27Z"/><path class="cls-47" d="M21.67,26.8l.17.18Z"/><path class="cls-47" d="M22,26.71v0Z"/><path class="cls-47" d="M22.06,27l.23-.13Z"/><path class="cls-47" d="M22.06,27.12l.17.14Z"/><path class="cls-47" d="M21.84,27.12l-.17.19Z"/><path class="cls-47" d="M24.31,27a.36.36,0,0,1-.39.33.33.33,0,1,1,0-.65A.36.36,0,0,1,24.31,27Z"/><path class="cls-47" d="M23.64,26.8l.16.18Z"/><path class="cls-47" d="M23.92,26.71v0Z"/><path class="cls-47" d="M24.05,27l.2-.15Z"/><path class="cls-47" d="M24,27.12l.17.14Z"/><path class="cls-47" d="M21.84,27.12l-.17.19Z"/><path class="cls-47" d="M23.8,27.12l-.16.19Z"/><path class="cls-53" d="M22.06,27c0,.09,0,.14-.11.14a.13.13,0,0,1-.11-.14c0-.05.06-.09.11-.09A.1.1,0,0,1,22.06,27Z"/><path class="cls-53" d="M24,27c0,.09-.05.14-.11.14a.13.13,0,0,1-.11-.14c0-.05.06-.09.11-.09A.1.1,0,0,1,24,27Z"/><path class="cls-58" d="M51.23,28.21V4h7.66c4.48,0,8,1.39,8,6.25A5.36,5.36,0,0,1,64,15.39v.06c2.69,1.48,3.27,2.77,3.27,5.77,0,4.9-2.9,7-7.7,7Zm5.91-14.66c2.59-.16,3.8,0,3.8-2.87,0-2.38-1.71-2.29-3.8-2.29Zm0,10.31c3-.06,4.21.13,4.21-3.12,0-2.81-1.68-2.74-4.21-2.84Z"/><path class="cls-58" d="M85.83,20.51c0,5.45-2,8.28-8,8.28S69.79,26,69.79,20.51V10.68c0-4.64,2.89-7.22,8.07-7.22s8,2.58,8,7.22Zm-5.92-9.44c0-1.49-.13-3.26-2.08-3.26s-2.12,1.77-2.12,3.26V21c0,1.39.23,3.45,2.15,3.45s2-2.06,2-3.45Z"/><path class="cls-58" d="M88.79,28.21V4h8.34l3.06,14.28h.07L103.42,4h8.27V28.21H106l.61-19h-.07l-4.17,19H98l-4.07-19h-.07l.54,19Z"/><path class="cls-58" d="M114.79,28.21V4h7.67c4.47,0,8,1.39,8,6.25a5.37,5.37,0,0,1-2.86,5.1v.06c2.69,1.48,3.26,2.77,3.26,5.77,0,4.9-2.89,7-7.7,7Zm5.92-14.66c2.59-.16,3.8,0,3.8-2.87,0-2.38-1.72-2.29-3.8-2.29Zm0,10.31c3-.06,4.2.13,4.2-3.12,0-2.81-1.68-2.74-4.2-2.84Z"/><path class="cls-58" d="M133.56,28.21V4h13.55V8.88h-7.64v4.44h7.4v4.84h-7.4v5.22h8v4.83Z"/><path class="cls-58" d="M156.16,28.21h-5.92V4h8.64c4.84,0,7.26,1.87,7.26,6.67,0,2.58-.63,4.42-3.12,5.51v.07a3.38,3.38,0,0,1,2.92,3.12c.17,1.94.2,6.1.54,7.64a2.2,2.2,0,0,0,.57.84v.32H160.6a4.73,4.73,0,0,1-.34-1.38c-.1-2.13,0-4.13-.14-5.61s-.63-2.45-2-2.55h-2Zm0-13.89h2c1.72,0,2.12-1.51,2.12-3,0-2.87-1.24-3-4.13-2.94Z"/><path class="cls-58" d="M184.91,20.51c0,5.45-2,8.28-8,8.28s-8.07-2.83-8.07-8.28V10.68c0-4.64,2.89-7.22,8.07-7.22s8,2.58,8,7.22ZM179,11.07c0-1.49-.13-3.26-2.08-3.26s-2.12,1.77-2.12,3.26V21c0,1.39.23,3.45,2.15,3.45S179,22.38,179,21Z"/><path class="cls-58" d="M192.24,20.12v1.71c0,1.39.47,2.61,2.36,2.61,1.38,0,2-1.19,2-2.42,0-2-1.75-2.8-3.29-3.7a17.05,17.05,0,0,1-4.48-3.16,6.9,6.9,0,0,1-1.71-4.83c0-4.55,2.86-6.87,7.43-6.87,5.15,0,7.77,3.29,7.5,7.83h-5.45c-.07-1.42,0-3.35-2-3.48a1.73,1.73,0,0,0-2,1.61c-.17,1.45.6,2.2,1.78,3,2.22,1.35,4.14,2.19,5.52,3.41s2.18,2.84,2.18,5.77c0,4.64-2.69,7.22-7.6,7.22-5.41,0-7.7-2.9-7.7-6.09V20.12Z"/><path class="cls-58" d="M228.83,20.51c0,2.58-.43,4.58-1.64,6l2.75,2.84-3.46,2.84-3.33-3.58c-.34.06-.71.1-1.08.13s-.77.06-1.21.06c-6,0-8.07-2.83-8.07-8.28V10.68c0-4.64,2.89-7.22,8.07-7.22s8,2.58,8,7.22ZM218.71,21c0,1.39.24,3.45,2.15,3.45s2.06-2.06,2.06-3.45V11.07c0-1.49-.14-3.26-2.09-3.26s-2.12,1.77-2.12,3.26Z"/><path class="cls-58" d="M231.56,4h5.92V22.28c0,1.16.37,2.16,2.05,2.16a2.05,2.05,0,0,0,2-2.32V4h5.92v17.5c0,4.09-1.92,7.25-8,7.25-5,0-7.94-2.29-7.94-7.25Z"/><path class="cls-58" d="M250.56,28.21V4h5.92V28.21Z"/><path class="cls-58" d="M258.94,4h15.33V8.88H269.5V28.21h-5.92V8.88h-4.64Z"/><path class="cls-58" d="M292.4,20.51c0,5.45-2,8.28-8,8.28s-8.07-2.83-8.07-8.28V10.68c0-4.64,2.89-7.22,8.07-7.22s8,2.58,8,7.22Zm-5.92-9.44c0-1.49-.13-3.26-2.09-3.26s-2.11,1.77-2.11,3.26V21c0,1.39.23,3.45,2.15,3.45s2.05-2.06,2.05-3.45Z"/><path class="cls-58" d="M56.51,41.8c1.66.67,2.9,1.16,2.9,3.13a3.18,3.18,0,1,1-6.36-.28h1c0,1.37.58,2.5,2.14,2.5A2.09,2.09,0,0,0,58.43,45c0-1.64-1.24-1.9-2.54-2.39-1.53-.58-2.62-1.23-2.62-3a2.79,2.79,0,0,1,2.95-3,2.69,2.69,0,0,1,2.89,2.88h-1a1.82,1.82,0,0,0-1.95-2,1.89,1.89,0,0,0-2,2.1c0,1.07.36,1.49,1.37,1.91Z"/><path class="cls-58" d="M62.74,41.74A2,2,0,0,1,65,39.52a2.16,2.16,0,0,1,1.72.61,2.31,2.31,0,0,1,.41,1.57v4.91c0,.48.09.55.61.54v.6a1.78,1.78,0,0,1-1,0c-.39-.15-.38-.35-.47-.73h0a2.23,2.23,0,0,1-1.84.86c-1.53,0-1.89-1-1.89-2.26a2,2,0,0,1,1.15-2.06c.74-.33,1.54-.56,2.28-.9a.45.45,0,0,0,.23-.32,4.94,4.94,0,0,0,0-1.33c-.12-.48-.42-.8-1.2-.8-1.24,0-1.22.77-1.36,1.48Zm3.47,1.67c-.57.3-1.16.5-1.73.74a1.42,1.42,0,0,0-1.09,1.65c0,.78.25,1.39,1.16,1.39a1.44,1.44,0,0,0,1.24-.59,3.11,3.11,0,0,0,.42-1.79Z"/><path class="cls-58" d="M71.35,47.73V36.86h.88V47.73Z"/><path class="cls-58" d="M78.54,46.2h0l1.76-6.47h.9l-2.21,8h-1l-2.23-8h.94Z"/><path class="cls-58" d="M84.2,41.74a2,2,0,0,1,2.23-2.22,2.17,2.17,0,0,1,1.72.61,2.31,2.31,0,0,1,.41,1.57v4.91c0,.48.09.55.6.54v.6a1.77,1.77,0,0,1-1,0c-.39-.15-.37-.35-.46-.73h0a2.26,2.26,0,0,1-1.84.86c-1.53,0-1.89-1-1.89-2.26a2,2,0,0,1,1.15-2.06c.74-.33,1.54-.56,2.28-.9a.48.48,0,0,0,.23-.32,4.94,4.94,0,0,0,0-1.33c-.13-.48-.43-.8-1.2-.8-1.24,0-1.22.77-1.36,1.48Zm3.48,1.67c-.57.3-1.16.5-1.74.74a1.43,1.43,0,0,0-1.09,1.65c0,.78.26,1.39,1.17,1.39a1.45,1.45,0,0,0,1.24-.59,3.11,3.11,0,0,0,.42-1.79Z"/><path class="cls-58" d="M93.33,47.73h-.87v-8h.87v.71h0a2.09,2.09,0,0,1,1.77-.92,1.73,1.73,0,0,1,1.76.9h0a2.36,2.36,0,0,1,2-.9c1.5,0,1.92.92,1.92,2.18v6h-.87V41.6c0-.67-.28-1.35-1.15-1.35a1.57,1.57,0,0,0-1.71,1.64v5.84h-.88V41.94c0-.89-.1-1.68-1.24-1.68-.69,0-1.62.66-1.62,1.37Z"/><path class="cls-58" d="M104.52,43.54c0-1.8.35-4,2.65-4s2.6,2.42,2.6,4.18-.24,4.23-2.65,4.23S104.52,45.39,104.52,43.54Zm4.37.17c0-1.24,0-3.45-1.83-3.45-1.57,0-1.66,2.19-1.66,3.29s-.09,3.64,1.71,3.64S108.89,44.91,108.89,43.71Z"/><path class="cls-58" d="M115.42,39.52a2.08,2.08,0,0,1,2.27,2.25h-.86a1.42,1.42,0,0,0-1.44-1.51,1.14,1.14,0,0,0-1.24,1.28,1.32,1.32,0,0,0,1,1.22c1.49.65,2.74,1.26,2.74,3a2.1,2.1,0,0,1-2.37,2.2,2.15,2.15,0,0,1-2.44-2.38H114c.08,1,.53,1.64,1.61,1.64A1.39,1.39,0,0,0,117,45.68c0-2.11-3.63-1.69-3.75-3.85A1.92,1.92,0,0,1,115.42,39.52Z"/><path class="cls-58" d="M129.86,44.86h0l.86-5.25h2.34l-1.86,8.12h-2.75l-1.84-8.12h2.42Z"/><path class="cls-58" d="M136.24,38.81v-2h2.4v2Zm0,8.92V39.61h2.4v8.12Z"/><path class="cls-58" d="M146.28,47.73v-.95h0A2.2,2.2,0,0,1,144.37,48c-1.75-.06-2.1-1.64-2.1-3V42.16c0-1.27.47-2.78,2.06-2.78a2.07,2.07,0,0,1,1.75,1h0V36.86h2.4V47.73Zm-1.61-2.93c0,.48,0,1.3.7,1.3s.74-.62.74-1.4V42.78c0-.69-.11-1.53-.7-1.52-.77,0-.74.92-.74,1.44Z"/><path class="cls-58" d="M156,47a2.56,2.56,0,0,1-2.08,1,2.06,2.06,0,0,1-2.2-2.18,2.57,2.57,0,0,1,2.1-2.75c1-.33,2.09-.43,2.09-1.3a.77.77,0,0,0-.76-.84c-.88,0-.88.58-.92,1.26h-2.41a2.4,2.4,0,0,1,.87-2.16,3.88,3.88,0,0,1,2.38-.64c2.38,0,3.24.7,3.24,2.48v5a2.61,2.61,0,0,0,.2.9h-2.35Zm-.09-3.22a10.47,10.47,0,0,0-1.21.6,1.13,1.13,0,0,0-.56,1,.81.81,0,0,0,.89.87c.71,0,.86-.71.88-1.23Z"/><path class="cls-58" d="M165.16,42a2.3,2.3,0,0,0-.14-.77.63.63,0,0,0-.66-.35c-.47,0-.81.2-.81.68s.38.65.75.83c1.55.68,3.23,1.07,3.23,3S166.09,48,164.33,48c-1.91,0-3.24-.79-3.15-2.74h2.3a1.45,1.45,0,0,0,.15.82.73.73,0,0,0,.71.39c.52,0,.86-.24.86-.76a.81.81,0,0,0-.31-.63c-1-.49-2.32-.84-3.07-1.66a2.15,2.15,0,0,1-.61-1.52c0-1.76,1.45-2.51,3.13-2.51s3.16.84,3.07,2.64Z"/></g></g></svg>